<?xml version="1.0" encoding="utf-8"?>
<!-- Generator: Adobe Illustrator 26.2.1, SVG Export Plug-In . SVG Version: 6.00 Build 0)  -->
<svg version="1.1" id="Ebene_1" xmlns="http://www.w3.org/2000/svg" xmlns:xlink="http://www.w3.org/1999/xlink" x="0px" y="0px"
	 viewBox="0 0 123 126" style="enable-background:new 0 0 123 126;" xml:space="preserve">
<style type="text/css">
	.st0{fill:url(#SVGID_1_);}
	.st1{fill:none;stroke:#2F2F2F;stroke-opacity:0.8;}
	.st2{fill:#FEFCF3;}
	.st3{fill:#B623A3;}
</style>
<g>
	
		<linearGradient id="SVGID_1_" gradientUnits="userSpaceOnUse" x1="77.5491" y1="-96.5799" x2="-12.3619" y2="157.1045" gradientTransform="matrix(1 0 0 1 0 110)">
		<stop  offset="0" style="stop-color:#B623A3"/>
		<stop  offset="1" style="stop-color:#B623A3;stop-opacity:0"/>
	</linearGradient>
	<path class="st0" d="M40.3,20h42.2c8.8,0,16,7.2,16,16v46c0,8.8-7.2,16-16,16H40.3c-8.8,0-16-7.2-16-16V36
		C24.3,27.2,31.4,20,40.3,20z"/>
	<path class="st1" d="M40.3,20.5h42.2C91,20.5,98,27.4,98,36v46c0,8.6-6.9,15.5-15.5,15.5H40.3c-8.6,0-15.5-6.9-15.5-15.5V36
		C24.8,27.4,31.7,20.5,40.3,20.5z"/>
</g>
<path class="st2" d="M39,81.6h4.3v1H39V81.6z M39.1,86h-1.2v-8.4h5.9v1h-4.7V86z M45.2,86v-6.4h1.1v1.7l-0.1-0.4
	c0.2-0.4,0.5-0.8,0.9-1s0.9-0.3,1.5-0.3v1.1h-0.1h-0.1c-0.6,0-1.1,0.2-1.5,0.6s-0.5,0.9-0.5,1.6V86H45.2z M50.1,86v-6.4h1.2V86H50.1
	z M50.7,78.4c-0.2,0-0.4-0.1-0.6-0.2c-0.1-0.1-0.2-0.3-0.2-0.5s0.1-0.4,0.2-0.5c0.2-0.1,0.3-0.2,0.6-0.2c0.2,0,0.4,0.1,0.6,0.2
	c0.2,0.1,0.2,0.3,0.2,0.5s-0.1,0.4-0.2,0.6C51.1,78.3,50.9,78.4,50.7,78.4z M56.3,86.1c-0.7,0-1.3-0.1-1.8-0.4s-0.9-0.7-1.2-1.2
	s-0.4-1-0.4-1.7c0-0.6,0.1-1.2,0.4-1.7c0.3-0.5,0.7-0.9,1.1-1.1c0.5-0.3,1-0.4,1.6-0.4s1.2,0.1,1.6,0.4c0.5,0.3,0.8,0.7,1.1,1.2
	s0.4,1.1,0.4,1.7c0,0,0,0.1,0,0.2s0,0.1,0,0.2h-5.4v-0.8h4.8L58,82.8c0-0.4-0.1-0.8-0.3-1.1c-0.2-0.3-0.4-0.6-0.7-0.7
	c-0.3-0.2-0.7-0.3-1.1-0.3c-0.4,0-0.8,0.1-1.1,0.3c-0.3,0.2-0.6,0.4-0.7,0.8c-0.2,0.3-0.3,0.7-0.3,1.1v0.2c0,0.4,0.1,0.8,0.3,1.1
	c0.2,0.3,0.5,0.6,0.8,0.8c0.4,0.2,0.8,0.3,1.2,0.3s0.7-0.1,1-0.2s0.6-0.3,0.8-0.6l0.6,0.7c-0.3,0.3-0.6,0.6-1.1,0.8
	C57.3,86,56.8,86.1,56.3,86.1z M64.2,79.6c0.5,0,1,0.1,1.4,0.3c0.4,0.2,0.7,0.5,0.9,0.9s0.3,0.9,0.3,1.5V86h-1.2v-3.5
	c0-0.6-0.2-1.1-0.5-1.4s-0.7-0.5-1.3-0.5c-0.4,0-0.8,0.1-1.1,0.2c-0.3,0.2-0.5,0.4-0.7,0.7c-0.2,0.3-0.2,0.7-0.2,1.2V86h-1.2v-6.4
	h1.1v1.7l-0.2-0.5c0.2-0.4,0.5-0.7,1-1S63.6,79.6,64.2,79.6z M71.6,86.1c-0.6,0-1.2-0.1-1.7-0.4S69,85,68.8,84.6s-0.4-1.1-0.4-1.7
	s0.1-1.2,0.4-1.7s0.7-0.9,1.1-1.1c0.5-0.3,1-0.4,1.7-0.4c0.5,0,1,0.1,1.5,0.4c0.4,0.2,0.8,0.6,1,1.1c0.3,0.5,0.4,1.1,0.4,1.8
	s-0.1,1.3-0.4,1.8c-0.2,0.5-0.6,0.8-1,1.1C72.6,86,72.1,86.1,71.6,86.1z M71.7,85.1c0.4,0,0.8-0.1,1.1-0.3c0.3-0.2,0.6-0.4,0.8-0.8
	c0.2-0.3,0.3-0.7,0.3-1.2s-0.1-0.8-0.3-1.2c-0.2-0.3-0.4-0.6-0.8-0.8c-0.3-0.2-0.7-0.3-1.1-0.3s-0.8,0.1-1.1,0.3s-0.6,0.4-0.8,0.8
	c-0.2,0.3-0.3,0.7-0.3,1.2c0,0.4,0.1,0.8,0.3,1.2c0.2,0.3,0.4,0.6,0.8,0.8C70.9,85,71.3,85.1,71.7,85.1z M73.8,86v-1.7l0.1-1.5
	l-0.1-1.5v-4.2H75V86H73.8z M77.1,86v-8.9h1.2V86H77.1z M80.8,88.4c-0.3,0-0.6-0.1-0.9-0.2s-0.5-0.2-0.7-0.4l0.5-0.9
	c0.2,0.2,0.3,0.3,0.5,0.3c0.2,0.1,0.4,0.1,0.6,0.1c0.3,0,0.5-0.1,0.7-0.2s0.4-0.4,0.5-0.8l0.4-0.9l0.1-0.1l2.5-5.8h1.1l-3.1,7
	c-0.2,0.4-0.4,0.8-0.6,1.1c-0.2,0.3-0.5,0.4-0.7,0.5C81.4,88.3,81.1,88.4,80.8,88.4z M82.3,86.2l-2.9-6.6h1.2l2.5,5.7L82.3,86.2z"/>
<g>
	<path class="st2" d="M70.1,50.8c-0.2,0-0.3-0.2-0.3-0.3c0-1.7-1.1-3.1-2.4-3.1S65,48.8,65,50.5c0,0.2-0.1,0.3-0.3,0.3
		c-0.2,0-0.3-0.2-0.3-0.3c0-2.1,1.3-3.7,3-3.7s3,1.7,3,3.7C70.4,50.6,70.3,50.8,70.1,50.8z M58.3,54c0.2,0,0.3,0.2,0.3,0.3
		c0,2.1,1.3,3.8,2.9,3.8c1.6,0,2.9-1.7,2.9-3.8c0-0.2,0.1-0.3,0.3-0.3c0.2,0,0.3,0.2,0.3,0.3c0,2.5-1.6,4.5-3.6,4.5s-3.6-2-3.6-4.5
		C57.9,54.1,58.1,54,58.3,54z M53,50.4c0,0.2-0.1,0.3-0.3,0.3s-0.3-0.2-0.3-0.3c0-2.1,1.3-3.7,3-3.7s3,1.7,3,3.7
		c0,0.2-0.1,0.3-0.3,0.3s-0.3-0.2-0.3-0.3c0-1.7-1.1-3.1-2.4-3.1C54.1,47.4,53,48.8,53,50.4z M74.2,40.6l1-3.7c0.1,0,0.2,0,0.3,0
		c0.1,0,0.1,0,0.2,0c0.5-0.1,1-0.3,1.4-0.8c0.3-0.4,0.5-1,0.4-1.5c-0.1-1.2-1.1-2-2.2-1.9c-0.5,0.1-1,0.3-1.4,0.8
		c-0.3,0.4-0.5,1-0.4,1.6c0.1,0.7,0.5,1.4,1.1,1.7l-1,3.7c-0.2,0-0.4,0-0.7,0H50.7c-0.1,0-0.2,0-0.4,0l-1-3.7c0.6-0.3,1-0.9,1.1-1.7
		c0.1-0.6-0.1-1.1-0.4-1.6c-0.3-0.4-0.8-0.7-1.4-0.8c-1.1-0.1-2.1,0.7-2.2,1.9c-0.1,0.6,0.1,1.1,0.4,1.5c0.3,0.4,0.8,0.7,1.4,0.8
		c0.1,0,0.1,0,0.2,0c0.1,0,0.2,0,0.3,0l1,3.6c-2.2,0.5-3.9,2.6-3.9,5v13.9c0,2.7,2,4.9,4.6,5.1v5.6c0,0.2,0.1,0.4,0.3,0.5
		c0.1,0,0.1,0,0.2,0c0.1,0,0.3-0.1,0.4-0.2l5.8-5.6c0.3-0.2,0.6-0.4,0.9-0.4h14.8c2.7,0,4.9-2.3,4.9-5.2V45.6
		C77.8,43.2,76.3,41.2,74.2,40.6z"/>
</g>
<g>
	<g>
		<g>
			<path class="st2" d="M49.6,36.4c0,0.1,0,0.3-0.1,0.4c-0.1,0.4-0.2,0.7-0.3,1.1c-0.1,0.2,0,0.3,0.2,0.4c0.5,0.2,0.9,0.4,1.4,0.6
				c0.1,0,0.1,0,0.1,0.1c0.1,0.1,0.2,0.2,0.2,0.4c0,0.1-0.1,0.3-0.1,0.4c-0.1,0.4-0.3,0.8-0.4,1.2c0,0.1-0.1,0.3-0.2,0.4
				c-0.1,0.2-0.2,0.2-0.4,0.2c-0.3-0.1-0.5-0.2-0.8-0.3C49,41,49,41,49,40.8c0.1-0.3,0.2-0.5,0.3-0.8c0-0.1,0.1-0.2,0.1-0.3
				s0-0.2-0.1-0.2c-0.4-0.2-0.8-0.3-1.2-0.5c-0.1,0-0.2-0.1-0.3-0.1c-0.1-0.1-0.2-0.1-0.1-0.3c0-0.2,0.1-0.4,0.1-0.6
				c0.1-0.3,0.1-0.6,0.2-0.8c0-0.1,0-0.2-0.1-0.2c-0.3-0.2-0.6-0.4-1-0.6c-0.1-0.1-0.1-0.1-0.1-0.3c0-0.1,0.1-0.2,0.1-0.3
				c0.1-0.1,0.2-0.3,0.3-0.4c0.1-0.1,0.2-0.2,0.3-0.1c0.5,0.3,1.1,0.5,1.6,0.8c0.1,0,0.1,0.1,0.2,0.1C49.5,36.2,49.5,36.3,49.6,36.4
				z"/>
		</g>
	</g>
</g>
<g>
	<g>
		<g>
			<path class="st2" d="M72.9,38.9c0.1-0.1,0.2-0.1,0.3-0.2c0.3-0.1,0.7-0.3,1-0.4c0.2-0.1,0.2-0.1,0.2-0.4c-0.1-0.5-0.3-1-0.4-1.5
				c0-0.1,0-0.1,0-0.2c0-0.1,0-0.3,0.2-0.3c0.1-0.1,0.2-0.1,0.3-0.2c0.4-0.1,0.7-0.3,1.1-0.4c0.1-0.1,0.3-0.1,0.4-0.1
				c0.2,0,0.3,0,0.4,0.2c0.1,0.3,0.2,0.5,0.2,0.8c0,0.2,0,0.2-0.1,0.3c-0.2,0.1-0.5,0.2-0.7,0.3c-0.1,0-0.2,0.1-0.3,0.1
				c-0.1,0.1-0.1,0.1-0.1,0.2c0.1,0.4,0.2,0.8,0.4,1.3c0,0.1,0.1,0.2,0.1,0.3s0,0.2-0.1,0.3c-0.2,0.1-0.3,0.2-0.5,0.2
				c-0.3,0.1-0.5,0.2-0.7,0.4c-0.1,0.1-0.1,0.1-0.1,0.2c0.1,0.4,0.1,0.8,0.2,1.1c0,0.1,0,0.2-0.1,0.3s-0.2,0.1-0.3,0.1
				c-0.2,0-0.3,0-0.5,0.1c-0.2,0-0.3,0-0.3-0.2c-0.2-0.6-0.3-1.2-0.4-1.8c0-0.1,0-0.1,0-0.2C72.7,39.1,72.8,39,72.9,38.9z"/>
		</g>
	</g>
</g>
<g>
	<path class="st2" d="M51.6,46.5h22.6v14.1H51.6V46.5z"/>
</g>
<g>
	<path class="st3" d="M57.4,45.9c-0.1,0.5,0,1,0,1.5s0,1,0.1,1.6c0,0.5,0.9,0.6,1,0.1c0.1-0.6,0.2-1.1,0.2-1.7c0-0.6,0-1.2-0.2-1.7
		c-0.1-0.2-0.3-0.3-0.5-0.3C57.6,45.5,57.4,45.7,57.4,45.9z"/>
</g>
<g>
	<path class="st3" d="M64.2,45.7c-0.2,0.4-0.1,1-0.1,1.4c0,0.5,0.1,1,0.2,1.4c0.2,0.7,1,0.6,1.1-0.1c0.1-0.5,0.1-1,0.1-1.5
		c-0.1-0.5-0.1-1-0.4-1.4C64.8,45.2,64.4,45.4,64.2,45.7z"/>
</g>
<g>
	<path class="st2" d="M52.7,53.9c0,1,0.5,1.9,1,2.7s1.2,1.4,1.9,2c1.4,1,3.2,1.6,4.9,1.7c1.8,0.1,3.6-0.3,5.1-1.2s2.8-2.2,3.8-3.7
		c0.5-0.8,0.9-1.8,1.2-2.7c0.2-0.5,0.3-1,0.4-1.5s0.2-1.1,0-1.6s-0.7-0.5-0.9-0.1c-0.2,0.4-0.2,0.8-0.3,1.2
		c-0.1,0.4-0.2,0.8-0.3,1.2c-0.2,0.7-0.5,1.5-0.9,2.1c-0.7,1.4-1.8,2.6-3.1,3.5c-2.5,1.7-6,1.9-8.7,0.5c-0.8-0.4-1.5-1-2.1-1.6
		c-0.7-0.8-1.1-1.6-1.5-2.5C53.1,53.6,52.7,53.6,52.7,53.9z"/>
</g>
<path class="st3" d="M54.5,54.4c0,0.8,0.4,1.5,0.8,2.1c0.4,0.6,0.9,1.1,1.5,1.5c1.1,0.8,2.5,1.2,3.8,1.3c1.4,0.1,2.8-0.2,4-0.9
	c1.2-0.7,2.2-1.7,3-2.9c0.4-0.7,0.7-1.4,1-2.1c0.1-0.4,0.2-0.8,0.3-1.2c0.1-0.4,0.1-0.8,0-1.2s-0.5-0.4-0.7-0.1
	c-0.1,0.3-0.1,0.6-0.2,0.9c-0.1,0.3-0.1,0.6-0.2,0.9c-0.2,0.6-0.4,1.1-0.7,1.7c-0.6,1.1-1.4,2-2.4,2.7c-2,1.3-4.7,1.5-6.8,0.4
	c-0.6-0.3-1.2-0.8-1.7-1.3c-0.5-0.6-0.8-1.3-1.2-2C54.8,54.1,54.5,54.1,54.5,54.4z"/>
</svg>
