<?xml version="1.0" encoding="utf-8"?>
<!-- Generator: Adobe Illustrator 26.2.1, SVG Export Plug-In . SVG Version: 6.00 Build 0)  -->
<svg version="1.1" id="Ebene_1" xmlns="http://www.w3.org/2000/svg" xmlns:xlink="http://www.w3.org/1999/xlink" x="0px" y="0px"
	 viewBox="0 0 123 126" style="enable-background:new 0 0 123 126;" xml:space="preserve">
<style type="text/css">
	.st0{fill:url(#SVGID_1_);}
	.st1{fill:none;stroke:#2F2F2F;stroke-opacity:0.8;}
	.st2{fill:#FEFCF3;}
	.st3{fill:#FFFFFF;filter:url(#Adobe_OpacityMaskFilter);}
	.st4{mask:url(#mask0_650_11023_00000021078618645951899370000018048953141986739859_);}
	.st5{fill:#FFFFFF;filter:url(#Adobe_OpacityMaskFilter_00000100369415744487314110000016908223888338861448_);}
	.st6{mask:url(#mask1_650_11023_00000005239066702275488080000015168286110031731884_);}
	.st7{fill:#FFFFFF;filter:url(#Adobe_OpacityMaskFilter_00000088854053975753097780000013698669404738033573_);}
	.st8{mask:url(#mask2_650_11023_00000153706978618339529180000012214829328997515956_);}
	.st9{fill:#FFFFFF;filter:url(#Adobe_OpacityMaskFilter_00000080170900696266897770000000229329930471734718_);}
	.st10{mask:url(#mask3_650_11023_00000025428278044238782080000007557393984999788726_);}
	.st11{fill:#FFFFFF;filter:url(#Adobe_OpacityMaskFilter_00000033357184429380273460000011085306043714513324_);}
	.st12{mask:url(#mask4_650_11023_00000121998673636906328400000011109544403337535155_);}
	.st13{fill:#FFFFFF;filter:url(#Adobe_OpacityMaskFilter_00000005255398546427972280000017612760701234888634_);}
	.st14{mask:url(#mask5_650_11023_00000072961819668207832300000013450541738353921430_);}
	.st15{fill:#FFFFFF;filter:url(#Adobe_OpacityMaskFilter_00000022540386653425556650000006946051072371045538_);}
	.st16{mask:url(#mask6_650_11023_00000086660747544446295310000000759016336745105826_);}
	.st17{fill:#FFFFFF;filter:url(#Adobe_OpacityMaskFilter_00000125580059374982972060000011991530604714609064_);}
	.st18{mask:url(#mask7_650_11023_00000183928192865167180640000013582817065732231099_);}
	.st19{fill:#B623A3;}
	.st20{fill:#FFFFFF;filter:url(#Adobe_OpacityMaskFilter_00000127041242965820190820000017571085782717072264_);}
	.st21{mask:url(#mask8_650_11023_00000024699942954579013140000007987246316215725735_);}
</style>
<g>
	
		<linearGradient id="SVGID_1_" gradientUnits="userSpaceOnUse" x1="77.2648" y1="112.5879" x2="-12.6461" y2="-141.0965" gradientTransform="matrix(1 0 0 -1 0 126)">
		<stop  offset="0" style="stop-color:#B623A3"/>
		<stop  offset="1" style="stop-color:#B623A3;stop-opacity:0"/>
	</linearGradient>
	<path class="st0" d="M40,20h42.2c8.8,0,16,7.2,16,16v46c0,8.8-7.2,16-16,16H40c-8.8,0-16-7.2-16-16V36C24,27.2,31.2,20,40,20z"/>
	<path class="st1" d="M40,20.5h42.2c8.6,0,15.5,6.9,15.5,15.5v46c0,8.6-6.9,15.5-15.5,15.5H40c-8.6,0-15.5-6.9-15.5-15.5V36
		C24.5,27.4,31.4,20.5,40,20.5z"/>
</g>
<path class="st2" d="M44.7,81.6h4.3v1h-4.3V81.6z M44.8,86h-1.2v-8.4h5.9v1h-4.7V86z M53.6,86.1c-0.5,0-1-0.1-1.4-0.3
	c-0.4-0.2-0.7-0.5-1-0.9c-0.2-0.4-0.3-0.9-0.3-1.6v-3.7H52v3.5c0,0.6,0.1,1.1,0.4,1.4c0.3,0.3,0.7,0.5,1.3,0.5c0.4,0,0.7-0.1,1-0.2
	c0.3-0.2,0.5-0.4,0.7-0.7c0.2-0.3,0.2-0.7,0.2-1.2v-3.3h1.2V86h-1.1v-1.7l0.2,0.5c-0.2,0.4-0.5,0.8-0.9,1S54.1,86.1,53.6,86.1z
	 M62.4,79.6c0.5,0,1,0.1,1.4,0.3c0.4,0.2,0.7,0.5,0.9,0.9c0.2,0.4,0.3,0.9,0.3,1.5V86h-1.2v-3.5c0-0.6-0.2-1.1-0.5-1.4
	c-0.3-0.3-0.7-0.5-1.3-0.5c-0.4,0-0.8,0.1-1.1,0.2c-0.3,0.2-0.5,0.4-0.7,0.7c-0.2,0.3-0.2,0.7-0.2,1.2V86H59v-6.4h1.1v1.7l-0.2-0.5
	c0.2-0.4,0.5-0.7,1-1C61.3,79.7,61.8,79.6,62.4,79.6z M70.6,79.6c0.5,0,1,0.1,1.4,0.3c0.4,0.2,0.7,0.5,0.9,0.9s0.3,0.9,0.3,1.5V86
	h-1.2v-3.5c0-0.6-0.2-1.1-0.5-1.4c-0.3-0.3-0.7-0.5-1.3-0.5c-0.4,0-0.8,0.1-1.1,0.2c-0.3,0.2-0.5,0.4-0.7,0.7
	c-0.2,0.3-0.2,0.7-0.2,1.2V86h-1.2v-6.4h1.1v1.7l-0.2-0.5c0.2-0.4,0.5-0.7,1-1S70,79.6,70.6,79.6z M75.5,88.4
	c-0.3,0-0.6-0.1-0.9-0.2c-0.3-0.1-0.5-0.2-0.7-0.4l0.5-0.9c0.2,0.2,0.3,0.3,0.5,0.3c0.2,0.1,0.4,0.1,0.6,0.1c0.3,0,0.5-0.1,0.7-0.2
	c0.2-0.1,0.4-0.4,0.5-0.8l0.4-0.9l0.1-0.1l2.5-5.8h1.1l-3.1,7c-0.2,0.4-0.4,0.8-0.6,1.1c-0.2,0.3-0.5,0.4-0.7,0.5
	C76.1,88.3,75.8,88.4,75.5,88.4z M77,86.2l-2.9-6.6h1.2l2.5,5.7L77,86.2z"/>
<defs>
	<filter id="Adobe_OpacityMaskFilter" filterUnits="userSpaceOnUse" x="46.1" y="33.7" width="32" height="38">
		<feColorMatrix  type="matrix" values="1 0 0 0 0  0 1 0 0 0  0 0 1 0 0  0 0 0 1 0"/>
	</filter>
</defs>
<mask maskUnits="userSpaceOnUse" x="46.1" y="33.7" width="32" height="38" id="mask0_650_11023_00000021078618645951899370000018048953141986739859_">
	<path class="st3" d="M46.1,33.7h32v38h-32V33.7z"/>
</mask>
<g class="st4">
	<path class="st2" d="M70.4,51.7c-0.2,0-0.3-0.2-0.3-0.3c0-1.7-1.1-3.1-2.4-3.1c-1.3,0-2.4,1.4-2.4,3.1c0,0.2-0.1,0.3-0.3,0.3
		c-0.2,0-0.3-0.2-0.3-0.3c0-2.1,1.3-3.7,3-3.7c1.7,0,3,1.7,3,3.7C70.7,51.5,70.6,51.7,70.4,51.7z M58.6,54.9c0.2,0,0.3,0.2,0.3,0.3
		c0,2.1,1.3,3.8,2.9,3.8c1.6,0,2.9-1.7,2.9-3.8c0-0.2,0.1-0.3,0.3-0.3c0.2,0,0.3,0.2,0.3,0.3c0,2.5-1.6,4.5-3.6,4.5
		c-2,0-3.6-2-3.6-4.5C58.3,55,58.4,54.9,58.6,54.9z M53.4,51.4c0,0.2-0.1,0.3-0.3,0.3c-0.2,0-0.3-0.2-0.3-0.3c0-2.1,1.3-3.7,3-3.7
		c1.7,0,3,1.7,3,3.7c0,0.2-0.1,0.3-0.3,0.3c-0.2,0-0.3-0.2-0.3-0.3c0-1.7-1.1-3.1-2.4-3.1C54.4,48.3,53.4,49.7,53.4,51.4z
		 M74.5,41.5l1-3.7c0.1,0,0.2,0,0.3,0c0.1,0,0.1,0,0.2,0c0.5-0.1,1-0.3,1.4-0.8c0.3-0.4,0.5-1,0.4-1.5c-0.1-1.2-1.1-2-2.2-1.9
		c-0.5,0.1-1,0.3-1.4,0.8c-0.3,0.4-0.5,1-0.4,1.6c0.1,0.7,0.5,1.4,1.1,1.7l-1,3.7c-0.2,0-0.4,0-0.7,0H51.1c-0.1,0-0.2,0-0.4,0
		l-1-3.7c0.6-0.3,1-0.9,1.1-1.7c0.1-0.6-0.1-1.1-0.4-1.6C50,34,49.5,33.7,49,33.7c-1.1-0.1-2.1,0.7-2.2,1.9
		c-0.1,0.6,0.1,1.1,0.4,1.5c0.3,0.4,0.8,0.7,1.4,0.8c0.1,0,0.1,0,0.2,0c0.1,0,0.2,0,0.3,0l1,3.6c-2.2,0.5-3.9,2.6-3.9,5v13.9
		c0,2.7,2,4.9,4.6,5.1v5.6c0,0.2,0.1,0.4,0.3,0.5c0.1,0,0.1,0,0.2,0c0.1,0,0.3-0.1,0.4-0.2l5.8-5.6c0.3-0.2,0.6-0.4,0.9-0.4h14.8
		c2.7,0,4.9-2.3,4.9-5.2V46.5C78.1,44.1,76.6,42.1,74.5,41.5z"/>
</g>
<defs>
	
		<filter id="Adobe_OpacityMaskFilter_00000024717310911946683790000007220115278848005805_" filterUnits="userSpaceOnUse" x="47.2" y="36.2" width="4.3" height="6.2">
		<feColorMatrix  type="matrix" values="1 0 0 0 0  0 1 0 0 0  0 0 1 0 0  0 0 0 1 0"/>
	</filter>
</defs>
<mask maskUnits="userSpaceOnUse" x="47.2" y="36.2" width="4.3" height="6.2" id="mask1_650_11023_00000005239066702275488080000015168286110031731884_">
	<path style="fill:#FFFFFF;filter:url(#Adobe_OpacityMaskFilter_00000024717310911946683790000007220115278848005805_);" d="
		M47.2,36.1h4.7v6.6h-4.7V36.1z"/>
</mask>
<g class="st6">
	<defs>
		
			<filter id="Adobe_OpacityMaskFilter_00000098223441159342137330000004640835096820717484_" filterUnits="userSpaceOnUse" x="47.2" y="36.2" width="4.3" height="6.2">
			<feColorMatrix  type="matrix" values="1 0 0 0 0  0 1 0 0 0  0 0 1 0 0  0 0 0 1 0"/>
		</filter>
	</defs>
	
		<mask maskUnits="userSpaceOnUse" x="47.2" y="36.2" width="4.3" height="6.2" id="mask2_650_11023_00000153706978618339529180000012214829328997515956_">
		<path style="fill:#FFFFFF;filter:url(#Adobe_OpacityMaskFilter_00000098223441159342137330000004640835096820717484_);" d="
			M51.2,35.8l0.6,6.5l-4,0.4l-0.6-6.5L51.2,35.8z"/>
	</mask>
	<g class="st8">
		<defs>
			
				<filter id="Adobe_OpacityMaskFilter_00000029016942644609484440000002608328829544802475_" filterUnits="userSpaceOnUse" x="47.2" y="36.2" width="4.3" height="6.2">
				<feColorMatrix  type="matrix" values="1 0 0 0 0  0 1 0 0 0  0 0 1 0 0  0 0 0 1 0"/>
			</filter>
		</defs>
		
			<mask maskUnits="userSpaceOnUse" x="47.2" y="36.2" width="4.3" height="6.2" id="mask3_650_11023_00000025428278044238782080000007557393984999788726_">
			<path style="fill:#FFFFFF;filter:url(#Adobe_OpacityMaskFilter_00000029016942644609484440000002608328829544802475_);" d="
				M51.2,35.8l0.6,6.5l-4,0.4l-0.6-6.5L51.2,35.8z"/>
		</mask>
		<g class="st10">
			<path class="st2" d="M50,37.3c0,0.1,0,0.3-0.1,0.4c-0.1,0.4-0.2,0.7-0.3,1.1c-0.1,0.2,0,0.3,0.2,0.4c0.5,0.2,1,0.4,1.4,0.6
				c0.1,0,0.1,0,0.1,0.1c0.1,0.1,0.2,0.2,0.2,0.4c0,0.1-0.1,0.3-0.1,0.4c-0.1,0.4-0.3,0.8-0.4,1.2c-0.1,0.1-0.1,0.3-0.2,0.4
				c-0.1,0.2-0.2,0.2-0.4,0.2c-0.3-0.1-0.5-0.2-0.8-0.3c-0.2-0.1-0.2-0.1-0.1-0.3c0.1-0.3,0.2-0.5,0.3-0.8c0-0.1,0.1-0.2,0.1-0.3
				c0-0.1,0-0.2-0.1-0.2c-0.4-0.2-0.8-0.3-1.2-0.5c-0.1,0-0.2-0.1-0.3-0.1c-0.1-0.1-0.2-0.1-0.1-0.3c0-0.2,0.1-0.4,0.2-0.6
				c0.1-0.3,0.1-0.6,0.2-0.8c0-0.1,0-0.2-0.1-0.2c-0.3-0.2-0.7-0.4-1-0.6c-0.1-0.1-0.1-0.1-0.1-0.3c0-0.1,0.1-0.2,0.1-0.3
				c0.1-0.1,0.2-0.3,0.3-0.4c0.1-0.1,0.2-0.2,0.4-0.1c0.6,0.3,1.1,0.5,1.7,0.8c0.1,0,0.1,0.1,0.2,0.1C50,37.1,50,37.2,50,37.3z"/>
		</g>
	</g>
</g>
<defs>
	
		<filter id="Adobe_OpacityMaskFilter_00000077290517516138494050000006795646048422445718_" filterUnits="userSpaceOnUse" x="73.4" y="36" width="3.9" height="6.3">
		<feColorMatrix  type="matrix" values="1 0 0 0 0  0 1 0 0 0  0 0 1 0 0  0 0 0 1 0"/>
	</filter>
</defs>
<mask maskUnits="userSpaceOnUse" x="73.4" y="36" width="3.9" height="6.3" id="mask4_650_11023_00000121998673636906328400000011109544403337535155_">
	<path style="fill:#FFFFFF;filter:url(#Adobe_OpacityMaskFilter_00000077290517516138494050000006795646048422445718_);" d="
		M73.1,35.7h4.3v6.9h-4.3V35.7z"/>
</mask>
<g class="st12">
	<defs>
		
			<filter id="Adobe_OpacityMaskFilter_00000132808031971920554830000017935972718167925682_" filterUnits="userSpaceOnUse" x="73.4" y="36" width="3.9" height="6.3">
			<feColorMatrix  type="matrix" values="1 0 0 0 0  0 1 0 0 0  0 0 1 0 0  0 0 0 1 0"/>
		</filter>
	</defs>
	
		<mask maskUnits="userSpaceOnUse" x="73.4" y="36" width="3.9" height="6.3" id="mask5_650_11023_00000072961819668207832300000013450541738353921430_">
		<path style="fill:#FFFFFF;filter:url(#Adobe_OpacityMaskFilter_00000132808031971920554830000017935972718167925682_);" d="
			M71.6,39.8l4.6-4.6l2.9,2.9l-4.6,4.6L71.6,39.8z"/>
	</mask>
	<g class="st14">
		<defs>
			
				<filter id="Adobe_OpacityMaskFilter_00000008869236180965279600000000829793417991273609_" filterUnits="userSpaceOnUse" x="73.4" y="36" width="3.9" height="6.3">
				<feColorMatrix  type="matrix" values="1 0 0 0 0  0 1 0 0 0  0 0 1 0 0  0 0 0 1 0"/>
			</filter>
		</defs>
		
			<mask maskUnits="userSpaceOnUse" x="73.4" y="36" width="3.9" height="6.3" id="mask6_650_11023_00000086660747544446295310000000759016336745105826_">
			<path style="fill:#FFFFFF;filter:url(#Adobe_OpacityMaskFilter_00000008869236180965279600000000829793417991273609_);" d="
				M71.6,39.8l4.6-4.6l2.9,2.9l-4.6,4.6L71.6,39.8z"/>
		</mask>
		<g class="st16">
			<path class="st2" d="M73.5,39.7c0.1-0.1,0.2-0.1,0.3-0.2c0.3-0.1,0.7-0.3,1-0.4c0.2-0.1,0.2-0.1,0.2-0.4c-0.1-0.5-0.3-1-0.4-1.5
				c0-0.1,0-0.1,0-0.2c0-0.1,0-0.3,0.2-0.3c0.1-0.1,0.2-0.1,0.4-0.2c0.4-0.1,0.8-0.3,1.2-0.4c0.1-0.1,0.3-0.1,0.4-0.1
				c0.2,0,0.3,0,0.4,0.2c0.1,0.3,0.2,0.5,0.3,0.8c0,0.2,0,0.2-0.2,0.3c-0.3,0.1-0.5,0.2-0.8,0.3c-0.1,0-0.2,0.1-0.3,0.1
				C76,37.8,76,37.8,76,37.9c0.1,0.4,0.2,0.8,0.4,1.3c0,0.1,0.1,0.2,0.1,0.3c0,0.1,0,0.2-0.1,0.3c-0.2,0.1-0.3,0.2-0.5,0.2
				c-0.3,0.1-0.5,0.2-0.8,0.4C75,40.5,75,40.5,75,40.7c0.1,0.4,0.1,0.8,0.2,1.1c0,0.1,0,0.2-0.1,0.3c-0.1,0.1-0.2,0.1-0.3,0.1
				c-0.2,0-0.3,0-0.5,0.1c-0.2,0-0.3,0-0.3-0.2c-0.2-0.6-0.3-1.2-0.5-1.8c0-0.1,0-0.1,0-0.2C73.4,39.9,73.4,39.8,73.5,39.7z"/>
		</g>
	</g>
</g>
<defs>
	
		<filter id="Adobe_OpacityMaskFilter_00000000206950738381423280000003869215690774654136_" filterUnits="userSpaceOnUse" x="52.1" y="47.4" width="23.5" height="14.1">
		<feColorMatrix  type="matrix" values="1 0 0 0 0  0 1 0 0 0  0 0 1 0 0  0 0 0 1 0"/>
	</filter>
</defs>
<mask maskUnits="userSpaceOnUse" x="52.1" y="47.4" width="23.5" height="14.1" id="mask7_650_11023_00000183928192865167180640000013582817065732231099_">
	<path style="fill:#FFFFFF;filter:url(#Adobe_OpacityMaskFilter_00000000206950738381423280000003869215690774654136_);" d="
		M52.1,47.4h23.2v14.1H52.1V47.4z"/>
</mask>
<g class="st18">
	<path class="st2" d="M52.1,47.4h23.5v14.1H52.1V47.4z"/>
</g>
<path class="st19" d="M59.8,49c0,0-0.1,0-0.1-0.1c-0.4-0.2-0.8-0.3-1.2-0.5c-0.5-0.2-0.9-0.3-1.4-0.5c-0.3-0.1-0.7-0.3-1-0.4
	c-0.6-0.2-1.2-0.4-1.8-0.6c-0.2,0-0.3-0.1-0.5-0.1c0,0-0.1,0-0.1,0c0,0,0,0,0,0c0,0,0,0,0,0c0,0,0.1,0,0.1,0c0.1,0,0.2-0.1,0.3-0.1
	c0,0,0,0,0,0c0,0,0,0,0,0c0,0,0-0.1,0-0.1c0,0,0.1,0,0.1,0c0,0,0.1,0,0.1,0c0,0,0.1,0,0.1,0c0,0,0.1,0,0.1,0c0.1,0,0.3,0.1,0.4,0.1
	c0.4,0.1,0.8,0.2,1.2,0.4c0.3,0.1,0.6,0.2,0.8,0.2c0.4,0.1,0.8,0.3,1.2,0.5c0.4,0.2,0.7,0.3,1.1,0.5c0.1,0.1,0.2,0.1,0.4,0.2
	c0,0,0,0,0,0c0,0-0.1,0-0.1,0c0,0,0,0,0.1,0c0.4,0.2,0.8,0.3,1.2,0.5c0.1,0,0.2,0.1,0.3,0.1c0,0,0,0,0,0c0,0,0,0,0,0.1
	c0,0,0,0,0,0.1c0,0.1-0.1,0.1-0.1,0.2c-0.1,0-0.1,0.1-0.2,0.1c0,0-0.1,0-0.1,0.1c-0.2,0-0.4,0.1-0.6,0.1c-0.2,0-0.4,0.1-0.6,0.1
	c-0.2,0-0.4,0.1-0.6,0.1c-0.1,0-0.2,0-0.2,0c-0.1,0-0.3,0-0.4,0.1c-0.2,0-0.4,0.1-0.6,0.1c-0.3,0.1-0.5,0.1-0.8,0.2
	c-0.6,0.1-1.2,0.3-1.8,0.4c-0.4,0.1-0.8,0.2-1.1,0.3c0,0,0,0-0.1,0c0,0-0.1,0-0.1,0c0,0,0-0.1-0.1-0.1c0,0,0,0,0,0c0,0,0-0.1,0-0.1
	c0-0.1,0-0.1-0.1,0c-0.1,0-0.1,0-0.2,0.1c0,0-0.1,0-0.1,0c0,0,0,0,0,0c0-0.1,0-0.1,0-0.1c0.3-0.1,0.5-0.2,0.8-0.3
	c0.4-0.1,0.7-0.2,1.1-0.3c0.5-0.1,0.9-0.3,1.4-0.4c0.6-0.2,1.2-0.3,1.8-0.4c0.4-0.1,0.7-0.1,1.1-0.1C59.6,49,59.7,49,59.8,49
	C59.8,49,59.8,49,59.8,49z M70.7,50.2C70.6,50.2,70.6,50.2,70.7,50.2c-0.1,0-0.1,0-0.1,0c-0.1,0-0.2,0-0.3-0.1
	C70.2,50,70,50,69.9,50c0,0,0,0-0.1,0c0.2,0,0.3,0.1,0.5,0.1C70.5,50.1,70.6,50.1,70.7,50.2c0-0.2-0.5-0.3-1-0.4c0,0,0,0,0,0
	c0-0.1,0-0.1,0-0.1c0,0,0,0,0,0c-0.8-0.2-1.5-0.3-2.3-0.4c-0.4,0-0.8-0.1-1.2-0.1c-0.2,0-0.3,0-0.5,0c0,0-0.1,0-0.1,0c0,0,0,0,0,0
	c0.1-0.1,0.2-0.1,0.3-0.2c0.2-0.1,0.4-0.2,0.7-0.3c0.4-0.2,0.7-0.3,1.1-0.4c0.6-0.2,1.2-0.4,1.8-0.6c0.4-0.1,0.9-0.2,1.4-0.3
	c0.1,0,0.1,0,0.2,0c0,0,0,0,0,0c0,0,0,0,0,0c0,0,0,0,0,0c-0.1,0-0.3,0-0.4,0c-0.1,0-0.2,0-0.3,0c0-0.1,0-0.1,0.1-0.1
	c0.1,0,0.1,0,0.2,0c0.1,0,0.2,0,0.3,0c0.1,0,0.1-0.1,0.1-0.1c0,0,0,0,0,0c0,0-0.1,0-0.1,0c-0.2,0-0.5,0-0.7,0.1
	c-0.5,0.1-0.9,0.2-1.4,0.3c-0.7,0.2-1.4,0.4-2.1,0.7c-0.4,0.2-0.9,0.4-1.3,0.6c-0.1,0.1-0.3,0.2-0.4,0.3c-0.3,0.2-0.6,0.3-0.8,0.5
	c-0.1,0.1-0.1,0.1,0,0.3c0.1,0.1,0.1,0.1,0.3,0.1c0.1,0,0.2,0,0.3,0c0.3,0,0.7,0,1,0c0.5,0,1,0.1,1.5,0.1c0.4,0.1,0.9,0.1,1.3,0.2
	c0.3,0.1,0.7,0.1,1,0.2c0.3,0.1,0.6,0.1,0.9,0.2c0.3,0.1,0.5,0.2,0.8,0.3c0.2,0.1,0.4,0.1,0.6,0.2c0,0,0,0,0.1,0
	c0.1,0,0.1-0.2,0-0.2c0,0-0.1,0-0.1,0c0,0,0,0,0,0c0-0.1,0-0.1-0.1-0.1c-0.2-0.1-0.5-0.2-0.7-0.3c-0.1,0-0.1,0-0.2-0.1c0,0,0,0,0,0
	c0.2,0.1,0.4,0.1,0.7,0.2c0.1,0,0.2,0.1,0.3,0.2c0,0,0,0,0.1,0c0,0,0-0.1,0-0.1c0,0-0.1-0.1-0.1-0.1c-0.3-0.1-0.6-0.2-1-0.3
	C70.8,50.2,70.7,50.2,70.7,50.2C70.7,50.2,70.7,50.2,70.7,50.2L70.7,50.2z M69,47.4c-0.6,0.2-1.3,0.4-1.9,0.6
	C67.7,47.7,68.3,47.5,69,47.4z M68.9,47.4c0.2-0.1,0.4-0.1,0.6-0.1c0.1,0,0.3,0,0.4,0c0,0,0,0,0.1,0c-0.4,0.1-0.8,0.2-1.2,0.3
	C68.8,47.5,68.9,47.5,68.9,47.4z M69.9,50c0,0,0.1,0,0.1,0C69.9,50,69.9,50,69.9,50z M70.8,50.2C70.8,50.3,70.8,50.2,70.8,50.2
	C70.8,50.2,70.8,50.2,70.8,50.2z M69.6,49.9C69.6,49.9,69.6,49.9,69.6,49.9C69.6,49.9,69.6,49.9,69.6,49.9
	C69.6,49.9,69.6,49.9,69.6,49.9C69.6,49.9,69.6,49.9,69.6,49.9z"/>
<path class="st19" d="M59.8,49c0,0-0.1,0-0.1-0.1c-0.4-0.2-0.8-0.3-1.2-0.5c-0.5-0.2-0.9-0.3-1.4-0.5c-0.3-0.1-0.7-0.3-1-0.4
	c-0.6-0.2-1.2-0.4-1.8-0.6c-0.2,0-0.3-0.1-0.5-0.1c0,0-0.1,0-0.1,0c0,0,0,0,0,0c0,0,0,0,0,0c0,0,0.1,0,0.1,0c0.1,0,0.2-0.1,0.3-0.1
	c0,0,0,0,0,0c0,0,0,0,0,0c0,0,0-0.1,0-0.1c0,0,0.1,0,0.1,0c0,0,0.1,0,0.1,0c0,0,0.1,0,0.1,0c0,0,0.1,0,0.1,0c0.1,0,0.3,0.1,0.4,0.1
	c0.4,0.1,0.8,0.2,1.2,0.4c0.3,0.1,0.6,0.2,0.8,0.2c0.4,0.1,0.8,0.3,1.2,0.5c0.4,0.2,0.7,0.3,1.1,0.5c0.1,0.1,0.2,0.1,0.4,0.2
	c0,0,0,0,0,0c0,0-0.1,0-0.1,0c0,0,0,0,0.1,0c0.4,0.2,0.8,0.3,1.2,0.5c0.1,0,0.2,0.1,0.3,0.1c0,0,0,0,0,0c0,0,0,0,0,0.1
	c0,0,0,0,0,0.1c0,0.1-0.1,0.1-0.1,0.2c-0.1,0-0.1,0.1-0.2,0.1c0,0-0.1,0-0.1,0.1c-0.2,0-0.4,0.1-0.6,0.1c-0.2,0-0.4,0.1-0.6,0.1
	c-0.2,0-0.4,0.1-0.6,0.1c-0.1,0-0.2,0-0.2,0c-0.1,0-0.3,0-0.4,0.1c-0.2,0-0.4,0.1-0.6,0.1c-0.3,0.1-0.5,0.1-0.8,0.2
	c-0.6,0.1-1.2,0.3-1.8,0.4c-0.4,0.1-0.8,0.2-1.1,0.3c0,0,0,0-0.1,0c0,0-0.1,0-0.1,0c0,0,0-0.1-0.1-0.1c0,0,0,0,0,0c0,0,0-0.1,0-0.1
	c0-0.1,0-0.1-0.1,0c-0.1,0-0.1,0-0.2,0.1c0,0-0.1,0-0.1,0c0,0,0,0,0,0c0-0.1,0-0.1,0-0.1c0.3-0.1,0.5-0.2,0.8-0.3
	c0.4-0.1,0.7-0.2,1.1-0.3c0.5-0.1,0.9-0.3,1.4-0.4c0.6-0.2,1.2-0.3,1.8-0.4c0.4-0.1,0.7-0.1,1.1-0.1C59.6,49,59.7,49,59.8,49
	C59.8,49,59.8,49,59.8,49z M70.7,50.2C70.6,50.2,70.6,50.2,70.7,50.2c-0.1,0-0.1,0-0.1,0c-0.1,0-0.2,0-0.3-0.1
	C70.2,50,70,50,69.9,50c0,0,0,0-0.1,0c0.2,0,0.3,0.1,0.5,0.1C70.5,50.1,70.6,50.1,70.7,50.2c0-0.2-0.5-0.3-1-0.4c0,0,0,0,0,0
	c0-0.1,0-0.1,0-0.1c0,0,0,0,0,0c-0.8-0.2-1.5-0.3-2.3-0.4c-0.4,0-0.8-0.1-1.2-0.1c-0.2,0-0.3,0-0.5,0c0,0-0.1,0-0.1,0c0,0,0,0,0,0
	c0.1-0.1,0.2-0.1,0.3-0.2c0.2-0.1,0.4-0.2,0.7-0.3c0.4-0.2,0.7-0.3,1.1-0.4c0.6-0.2,1.2-0.4,1.8-0.6c0.4-0.1,0.9-0.2,1.4-0.3
	c0.1,0,0.1,0,0.2,0c0,0,0,0,0,0c0,0,0,0,0,0c0,0,0,0,0,0c-0.1,0-0.3,0-0.4,0c-0.1,0-0.2,0-0.3,0c0-0.1,0-0.1,0.1-0.1
	c0.1,0,0.1,0,0.2,0c0.1,0,0.2,0,0.3,0c0.1,0,0.1-0.1,0.1-0.1c0,0,0,0,0,0c0,0-0.1,0-0.1,0c-0.2,0-0.5,0-0.7,0.1
	c-0.5,0.1-0.9,0.2-1.4,0.3c-0.7,0.2-1.4,0.4-2.1,0.7c-0.4,0.2-0.9,0.4-1.3,0.6c-0.1,0.1-0.3,0.2-0.4,0.3c-0.3,0.2-0.6,0.3-0.8,0.5
	c-0.1,0.1-0.1,0.1,0,0.3c0.1,0.1,0.1,0.1,0.3,0.1c0.1,0,0.2,0,0.3,0c0.3,0,0.7,0,1,0c0.5,0,1,0.1,1.5,0.1c0.4,0.1,0.9,0.1,1.3,0.2
	c0.3,0.1,0.7,0.1,1,0.2c0.3,0.1,0.6,0.1,0.9,0.2c0.3,0.1,0.5,0.2,0.8,0.3c0.2,0.1,0.4,0.1,0.6,0.2c0,0,0,0,0.1,0
	c0.1,0,0.1-0.2,0-0.2c0,0-0.1,0-0.1,0c0,0,0,0,0,0c0-0.1,0-0.1-0.1-0.1c-0.2-0.1-0.5-0.2-0.7-0.3c-0.1,0-0.1,0-0.2-0.1c0,0,0,0,0,0
	c0.2,0.1,0.4,0.1,0.7,0.2c0.1,0,0.2,0.1,0.3,0.2c0,0,0,0,0.1,0c0,0,0-0.1,0-0.1c0,0-0.1-0.1-0.1-0.1c-0.3-0.1-0.6-0.2-1-0.3
	C70.8,50.2,70.7,50.2,70.7,50.2C70.7,50.2,70.7,50.2,70.7,50.2L70.7,50.2z M69,47.4c-0.6,0.2-1.3,0.4-1.9,0.6
	C67.7,47.7,68.3,47.5,69,47.4z M68.9,47.4c0.2-0.1,0.4-0.1,0.6-0.1c0.1,0,0.3,0,0.4,0c0,0,0,0,0.1,0c-0.4,0.1-0.8,0.2-1.2,0.3
	C68.8,47.5,68.9,47.5,68.9,47.4z M69.9,50c0,0,0.1,0,0.1,0C69.9,50,69.9,50,69.9,50z M70.8,50.2C70.8,50.3,70.8,50.2,70.8,50.2
	C70.8,50.2,70.8,50.2,70.8,50.2z M69.6,49.9C69.6,49.9,69.6,49.9,69.6,49.9C69.6,49.9,69.6,49.9,69.6,49.9
	C69.6,49.9,69.6,49.9,69.6,49.9C69.6,49.9,69.6,49.9,69.6,49.9z"/>
<defs>
	
		<filter id="Adobe_OpacityMaskFilter_00000114762335409608369210000003823050419489185169_" filterUnits="userSpaceOnUse" x="55" y="55.3" width="13.9" height="5.7">
		<feColorMatrix  type="matrix" values="1 0 0 0 0  0 1 0 0 0  0 0 1 0 0  0 0 0 1 0"/>
	</filter>
</defs>
<mask maskUnits="userSpaceOnUse" x="55" y="55.3" width="13.9" height="5.7" id="mask8_650_11023_00000024699942954579013140000007987246316215725735_">
	<path style="fill:#FFFFFF;filter:url(#Adobe_OpacityMaskFilter_00000114762335409608369210000003823050419489185169_);" d="
		M55,55.2h14V61H55V55.2z"/>
</mask>
<g class="st21">
	<path class="st19" d="M55,57.4c0.4,1.1,1.3,1.8,2.3,2.3c1.1,0.6,2.3,1,3.5,1.2c2.4,0.3,4.9-0.3,6.6-2.1c0.8-0.9,1.5-2,1.6-3.2
		c0-0.3-0.4-0.4-0.5-0.1c-0.3,0.9-0.8,1.7-1.4,2.5c-0.6,0.7-1.4,1.2-2.3,1.6c-2.1,0.9-4.6,0.6-6.6-0.3c-1.1-0.5-2-1.2-2.7-2.1
		C55.2,56.9,54.9,57.1,55,57.4z"/>
</g>
</svg>
