<?xml version="1.0" encoding="utf-8"?>
<!-- Generator: Adobe Illustrator 26.2.1, SVG Export Plug-In . SVG Version: 6.00 Build 0)  -->
<svg version="1.1" id="Ebene_1" xmlns="http://www.w3.org/2000/svg" xmlns:xlink="http://www.w3.org/1999/xlink" x="0px" y="0px"
	 viewBox="0 0 123 126" style="enable-background:new 0 0 123 126;" xml:space="preserve">
<style type="text/css">
	.st0{fill:url(#SVGID_1_);}
	.st1{fill:none;stroke:#2F2F2F;stroke-opacity:0.8;}
	.st2{fill:#FEFCF3;}
	.st3{fill:#FFFFFF;filter:url(#Adobe_OpacityMaskFilter);}
	.st4{mask:url(#mask0_654_11134_00000141450712356130587770000003081918956132736164_);}
	.st5{fill:#FFFFFF;filter:url(#Adobe_OpacityMaskFilter_00000152968963409986400750000014683953896632442790_);}
	.st6{mask:url(#mask1_654_11134_00000131335711039827991900000005773822140809238950_);}
	.st7{fill:#FFFFFF;filter:url(#Adobe_OpacityMaskFilter_00000122723005016283276330000001499974280872703663_);}
	.st8{mask:url(#mask2_654_11134_00000183959044831681234560000007847021091196299448_);}
	.st9{fill:#FFFFFF;filter:url(#Adobe_OpacityMaskFilter_00000047021013041682216100000007842839516072735623_);}
	.st10{mask:url(#mask3_654_11134_00000080164916454987543020000003107410188004895874_);}
	.st11{fill:#FFFFFF;filter:url(#Adobe_OpacityMaskFilter_00000041985568608619536550000009818664474159149967_);}
	.st12{mask:url(#mask4_654_11134_00000018948561731468802070000010366780075789833903_);}
	.st13{fill:#FFFFFF;filter:url(#Adobe_OpacityMaskFilter_00000152957925937801512820000010259609109907867011_);}
	.st14{mask:url(#mask5_654_11134_00000080900912448507587810000017189824984161565105_);}
	.st15{fill:#FFFFFF;filter:url(#Adobe_OpacityMaskFilter_00000043453721014592215230000017378179532229999494_);}
	.st16{mask:url(#mask6_654_11134_00000062893313250404434760000016423114822594871726_);}
	.st17{fill:#FFFFFF;filter:url(#Adobe_OpacityMaskFilter_00000127035028878536804620000003689496052833744561_);}
	.st18{mask:url(#mask7_654_11134_00000171688845141936838070000015815663817463973007_);}
	.st19{fill:#FFFFFF;filter:url(#Adobe_OpacityMaskFilter_00000179604561729981667060000012633596216690907019_);}
	.st20{mask:url(#mask8_654_11134_00000074409549582886220760000000369688930162716564_);}
	.st21{fill:#B623A3;}
	.st22{fill:#FFFFFF;filter:url(#Adobe_OpacityMaskFilter_00000119824151652105540230000016384757778666863800_);}
	.st23{mask:url(#mask9_654_11134_00000026160425908651124830000011504789797816763307_);}
	.st24{fill:#FFFFFF;filter:url(#Adobe_OpacityMaskFilter_00000080184331795150314560000006112261538549158289_);}
	.st25{mask:url(#mask0_654_11367_00000052103153676945850120000018147291510062494853_);}
</style>
<g>
	
		<linearGradient id="SVGID_1_" gradientUnits="userSpaceOnUse" x1="77.7882" y1="112.5879" x2="-12.1227" y2="-141.0965" gradientTransform="matrix(1 0 0 -1 0 126)">
		<stop  offset="0" style="stop-color:#B623A3"/>
		<stop  offset="1" style="stop-color:#B623A3;stop-opacity:0"/>
	</linearGradient>
	<path class="st0" d="M40.5,20h42.2c8.8,0,16,7.2,16,16v46c0,8.8-7.2,16-16,16H40.5c-8.8,0-16-7.2-16-16V36
		C24.5,27.2,31.7,20,40.5,20z"/>
	<path class="st1" d="M40.5,20.5h42.2c8.6,0,15.5,6.9,15.5,15.5v46c0,8.6-6.9,15.5-15.5,15.5H40.5C32,97.5,25,90.6,25,82V36
		C25,27.4,32,20.5,40.5,20.5z"/>
</g>
<path class="st2" d="M33.1,86v-8.4h3.3c0.7,0,1.4,0.1,1.9,0.3c0.5,0.2,0.9,0.6,1.2,1s0.4,1,0.4,1.6s-0.1,1.1-0.4,1.6
	c-0.3,0.4-0.7,0.8-1.2,1s-1.1,0.3-1.9,0.3h-2.6l0.5-0.6V86H33.1z M38.7,86l-2.1-3h1.3l2.2,3H38.7z M34.3,83l-0.5-0.6h2.6
	c0.8,0,1.3-0.2,1.7-0.5c0.4-0.3,0.6-0.8,0.6-1.4s-0.2-1.1-0.6-1.4c-0.4-0.3-1-0.5-1.7-0.5h-2.6l0.5-0.6V83z M44.4,86.1
	c-0.6,0-1.2-0.1-1.7-0.4c-0.5-0.3-0.9-0.7-1.2-1.2c-0.3-0.5-0.4-1.1-0.4-1.7c0-0.6,0.1-1.2,0.4-1.7c0.3-0.5,0.7-0.9,1.2-1.1
	c0.5-0.3,1.1-0.4,1.7-0.4c0.6,0,1.2,0.1,1.7,0.4c0.5,0.3,0.9,0.7,1.2,1.1c0.3,0.5,0.4,1,0.4,1.7c0,0.6-0.1,1.2-0.4,1.7
	c-0.3,0.5-0.7,0.9-1.2,1.2C45.6,85.9,45,86.1,44.4,86.1z M44.4,85.1c0.4,0,0.8-0.1,1.1-0.3c0.3-0.2,0.6-0.4,0.8-0.8
	c0.2-0.3,0.3-0.7,0.3-1.2c0-0.5-0.1-0.8-0.3-1.2c-0.2-0.3-0.4-0.6-0.8-0.8c-0.3-0.2-0.7-0.3-1.1-0.3s-0.8,0.1-1.1,0.3
	s-0.6,0.4-0.8,0.8c-0.2,0.3-0.3,0.7-0.3,1.2c0,0.4,0.1,0.8,0.3,1.2c0.2,0.3,0.4,0.6,0.8,0.8C43.6,85,44,85.1,44.4,85.1z M57.2,79.6
	c0.5,0,1,0.1,1.4,0.3c0.4,0.2,0.7,0.5,0.9,0.9c0.2,0.4,0.3,0.9,0.3,1.5V86h-1.2v-3.5c0-0.6-0.1-1.1-0.4-1.4
	c-0.3-0.3-0.7-0.5-1.2-0.5c-0.4,0-0.7,0.1-1,0.2c-0.3,0.2-0.5,0.4-0.7,0.7c-0.2,0.3-0.2,0.7-0.2,1.2V86H54v-3.5
	c0-0.6-0.1-1.1-0.4-1.4c-0.3-0.3-0.7-0.5-1.2-0.5c-0.4,0-0.7,0.1-1,0.2c-0.3,0.2-0.5,0.4-0.7,0.7c-0.2,0.3-0.2,0.7-0.2,1.2V86h-1.2
	v-6.4h1.1v1.7l-0.2-0.4c0.2-0.4,0.5-0.7,0.9-1s0.9-0.3,1.5-0.3c0.6,0,1.1,0.2,1.6,0.5c0.4,0.3,0.7,0.7,0.9,1.4l-0.5-0.2
	c0.2-0.5,0.5-0.9,1-1.2C56,79.7,56.6,79.6,57.2,79.6z M65.9,86v-1.3l-0.1-0.3v-2.3c0-0.5-0.1-0.9-0.4-1.1c-0.3-0.3-0.7-0.4-1.3-0.4
	c-0.4,0-0.7,0.1-1.1,0.2c-0.4,0.1-0.7,0.3-0.9,0.5l-0.5-0.9c0.3-0.3,0.7-0.5,1.2-0.6c0.5-0.1,0.9-0.2,1.5-0.2c0.9,0,1.5,0.2,2,0.6
	c0.5,0.4,0.7,1.1,0.7,1.9V86H65.9z M63.8,86.1c-0.5,0-0.9-0.1-1.2-0.2c-0.4-0.2-0.6-0.4-0.8-0.7c-0.2-0.3-0.3-0.6-0.3-1
	c0-0.3,0.1-0.7,0.2-0.9c0.2-0.3,0.4-0.5,0.8-0.7c0.4-0.2,0.9-0.3,1.5-0.3h2v0.8h-2c-0.6,0-1,0.1-1.2,0.3s-0.3,0.4-0.3,0.7
	c0,0.3,0.1,0.6,0.4,0.8c0.2,0.2,0.6,0.3,1,0.3c0.4,0,0.8-0.1,1.1-0.3c0.3-0.2,0.6-0.5,0.7-0.8l0.2,0.8c-0.2,0.4-0.4,0.7-0.8,0.9
	C64.9,86,64.4,86.1,63.8,86.1z M72.5,79.6c0.5,0,1,0.1,1.4,0.3c0.4,0.2,0.7,0.5,0.9,0.9s0.3,0.9,0.3,1.5V86H74v-3.5
	c0-0.6-0.2-1.1-0.5-1.4c-0.3-0.3-0.7-0.5-1.3-0.5c-0.4,0-0.8,0.1-1.1,0.2c-0.3,0.2-0.5,0.4-0.7,0.7c-0.2,0.3-0.2,0.7-0.2,1.2V86
	h-1.2v-6.4h1.1v1.7l-0.2-0.5c0.2-0.4,0.5-0.7,1-1S72,79.6,72.5,79.6z M79.5,86.1c-0.6,0-1.1-0.2-1.5-0.5c-0.4-0.3-0.5-0.8-0.5-1.5
	v-5.8h1.2V84c0,0.3,0.1,0.6,0.3,0.8c0.2,0.2,0.4,0.3,0.7,0.3c0.4,0,0.7-0.1,0.9-0.3l0.4,0.8c-0.2,0.2-0.4,0.3-0.6,0.3
	C80,86,79.8,86.1,79.5,86.1z M76.4,80.6v-0.9h4.1v0.9H76.4z M82.3,86v-6.4h1.2V86H82.3z M82.9,78.4c-0.2,0-0.4-0.1-0.6-0.2
	c-0.1-0.1-0.2-0.3-0.2-0.5c0-0.2,0.1-0.4,0.2-0.5c0.2-0.1,0.3-0.2,0.6-0.2c0.2,0,0.4,0.1,0.6,0.2c0.2,0.1,0.2,0.3,0.2,0.5
	c0,0.2-0.1,0.4-0.2,0.6C83.3,78.3,83.1,78.4,82.9,78.4z M88.4,86.1c-0.6,0-1.2-0.1-1.7-0.4c-0.5-0.3-0.9-0.7-1.2-1.2
	c-0.3-0.5-0.4-1-0.4-1.7c0-0.6,0.1-1.2,0.4-1.7c0.3-0.5,0.7-0.9,1.2-1.1c0.5-0.3,1.1-0.4,1.7-0.4c0.6,0,1.1,0.1,1.5,0.3
	c0.5,0.2,0.8,0.6,1.1,1l-0.9,0.6c-0.2-0.3-0.5-0.5-0.8-0.7c-0.3-0.2-0.6-0.2-1-0.2c-0.4,0-0.8,0.1-1.1,0.3c-0.3,0.2-0.6,0.4-0.8,0.8
	c-0.2,0.3-0.3,0.7-0.3,1.2s0.1,0.9,0.3,1.2c0.2,0.3,0.5,0.6,0.8,0.8c0.3,0.2,0.7,0.3,1.1,0.3c0.3,0,0.7-0.1,1-0.2
	c0.3-0.2,0.6-0.4,0.8-0.7l0.9,0.6c-0.2,0.4-0.6,0.8-1.1,1C89.5,86,89,86.1,88.4,86.1z"/>
<defs>
	<filter id="Adobe_OpacityMaskFilter" filterUnits="userSpaceOnUse" x="45.2" y="33.7" width="32" height="38">
		<feColorMatrix  type="matrix" values="1 0 0 0 0  0 1 0 0 0  0 0 1 0 0  0 0 0 1 0"/>
	</filter>
</defs>
<mask maskUnits="userSpaceOnUse" x="45.2" y="33.7" width="32" height="38" id="mask0_654_11134_00000141450712356130587770000003081918956132736164_">
	<path class="st3" d="M45.2,33.7h32v38h-32V33.7z"/>
</mask>
<g class="st4">
	<path class="st2" d="M69.5,51.7c-0.2,0-0.3-0.2-0.3-0.3c0-1.7-1.1-3.1-2.4-3.1c-1.3,0-2.4,1.4-2.4,3.1c0,0.2-0.1,0.3-0.3,0.3
		c-0.2,0-0.3-0.2-0.3-0.3c0-2.1,1.3-3.7,3-3.7s3,1.7,3,3.7C69.8,51.5,69.7,51.7,69.5,51.7z M57.7,54.9c0.2,0,0.3,0.2,0.3,0.3
		c0,2.1,1.3,3.8,2.9,3.8c1.6,0,2.9-1.7,2.9-3.8c0-0.2,0.1-0.3,0.3-0.3s0.3,0.2,0.3,0.3c0,2.5-1.6,4.5-3.6,4.5s-3.6-2-3.6-4.5
		C57.4,55,57.5,54.9,57.7,54.9z M52.5,51.4c0,0.2-0.1,0.3-0.3,0.3c-0.2,0-0.3-0.2-0.3-0.3c0-2.1,1.3-3.7,3-3.7c1.7,0,3,1.7,3,3.7
		c0,0.2-0.1,0.3-0.3,0.3c-0.2,0-0.3-0.2-0.3-0.3c0-1.7-1.1-3.1-2.4-3.1C53.5,48.3,52.5,49.7,52.5,51.4z M73.6,41.5l1-3.7
		c0.1,0,0.2,0,0.3,0c0.1,0,0.1,0,0.2,0c0.5-0.1,1-0.3,1.4-0.8c0.3-0.4,0.5-1,0.4-1.5c-0.1-1.2-1.1-2-2.2-1.9c-0.5,0.1-1,0.3-1.4,0.8
		c-0.3,0.4-0.5,1-0.4,1.6c0.1,0.7,0.5,1.4,1.1,1.7l-1,3.7c-0.2,0-0.4,0-0.7,0H50.2c-0.1,0-0.2,0-0.4,0l-1-3.7c0.6-0.3,1-0.9,1.1-1.7
		c0.1-0.6-0.1-1.1-0.4-1.6c-0.3-0.4-0.8-0.7-1.4-0.8c-1.1-0.1-2.1,0.7-2.2,1.9c-0.1,0.6,0.1,1.1,0.4,1.5c0.3,0.4,0.8,0.7,1.4,0.8
		c0.1,0,0.1,0,0.2,0c0.1,0,0.2,0,0.3,0l1,3.6c-2.2,0.5-3.9,2.6-3.9,5v13.9c0,2.7,2,4.9,4.6,5.1v5.6c0,0.2,0.1,0.4,0.3,0.5
		c0.1,0,0.1,0,0.2,0c0.1,0,0.3-0.1,0.4-0.2l5.8-5.6c0.3-0.2,0.6-0.4,0.9-0.4h14.8c2.7,0,4.9-2.3,4.9-5.2V46.5
		C77.2,44.1,75.7,42.1,73.6,41.5z"/>
</g>
<defs>
	
		<filter id="Adobe_OpacityMaskFilter_00000119077581500330293140000015590353685710081452_" filterUnits="userSpaceOnUse" x="46.3" y="36.2" width="4.1" height="6.2">
		<feColorMatrix  type="matrix" values="1 0 0 0 0  0 1 0 0 0  0 0 1 0 0  0 0 0 1 0"/>
	</filter>
</defs>
<mask maskUnits="userSpaceOnUse" x="46.3" y="36.2" width="4.1" height="6.2" id="mask1_654_11134_00000131335711039827991900000005773822140809238950_">
	<path style="fill:#FFFFFF;filter:url(#Adobe_OpacityMaskFilter_00000119077581500330293140000015590353685710081452_);" d="
		M46.2,36.1h4.5v6.6h-4.5V36.1z"/>
</mask>
<g class="st6">
	<defs>
		
			<filter id="Adobe_OpacityMaskFilter_00000025424844457515474970000006619908290025433491_" filterUnits="userSpaceOnUse" x="46.3" y="36.2" width="4.1" height="6.2">
			<feColorMatrix  type="matrix" values="1 0 0 0 0  0 1 0 0 0  0 0 1 0 0  0 0 0 1 0"/>
		</filter>
	</defs>
	
		<mask maskUnits="userSpaceOnUse" x="46.3" y="36.2" width="4.1" height="6.2" id="mask2_654_11134_00000183959044831681234560000007847021091196299448_">
		<path style="fill:#FFFFFF;filter:url(#Adobe_OpacityMaskFilter_00000025424844457515474970000006619908290025433491_);" d="
			M50.1,35.8l0.6,6.5l-3.9,0.4l-0.6-6.5L50.1,35.8z"/>
	</mask>
	<g class="st8">
		<defs>
			
				<filter id="Adobe_OpacityMaskFilter_00000116201981695168151340000003893416074723637427_" filterUnits="userSpaceOnUse" x="46.3" y="36.2" width="4.1" height="6.2">
				<feColorMatrix  type="matrix" values="1 0 0 0 0  0 1 0 0 0  0 0 1 0 0  0 0 0 1 0"/>
			</filter>
		</defs>
		
			<mask maskUnits="userSpaceOnUse" x="46.3" y="36.2" width="4.1" height="6.2" id="mask3_654_11134_00000080164916454987543020000003107410188004895874_">
			<path style="fill:#FFFFFF;filter:url(#Adobe_OpacityMaskFilter_00000116201981695168151340000003893416074723637427_);" d="
				M50.1,35.8l0.6,6.5l-3.9,0.4l-0.6-6.5L50.1,35.8z"/>
		</mask>
		<g class="st10">
			<path class="st2" d="M49,37.3c0,0.1,0,0.3-0.1,0.4c-0.1,0.4-0.2,0.7-0.3,1.1c-0.1,0.2,0,0.3,0.2,0.4c0.5,0.2,0.9,0.4,1.4,0.6
				c0.1,0,0.1,0,0.1,0.1c0.1,0.1,0.2,0.2,0.2,0.4c0,0.1-0.1,0.3-0.1,0.4c-0.1,0.4-0.3,0.8-0.4,1.2c0,0.1-0.1,0.3-0.2,0.4
				c-0.1,0.2-0.2,0.2-0.4,0.2c-0.3-0.1-0.5-0.2-0.8-0.3c-0.2-0.1-0.2-0.1-0.1-0.3c0.1-0.3,0.2-0.5,0.3-0.8c0-0.1,0.1-0.2,0.1-0.3
				c0-0.1,0-0.2-0.1-0.2c-0.4-0.2-0.8-0.3-1.2-0.5c-0.1,0-0.2-0.1-0.3-0.1c-0.1-0.1-0.2-0.1-0.1-0.3c0-0.2,0.1-0.4,0.1-0.6
				c0.1-0.3,0.1-0.6,0.2-0.8c0-0.1,0-0.2-0.1-0.2c-0.3-0.2-0.6-0.4-1-0.6c-0.1-0.1-0.1-0.1-0.1-0.3c0-0.1,0.1-0.2,0.1-0.3
				c0.1-0.1,0.2-0.3,0.3-0.4c0.1-0.1,0.2-0.2,0.3-0.1c0.5,0.3,1.1,0.5,1.6,0.8c0.1,0,0.1,0.1,0.2,0.1C48.9,37.1,49,37.2,49,37.3z"/>
		</g>
	</g>
</g>
<defs>
	
		<filter id="Adobe_OpacityMaskFilter_00000072960205480048571680000017395667930975093381_" filterUnits="userSpaceOnUse" x="72.2" y="36.1" width="3.8" height="6.3">
		<feColorMatrix  type="matrix" values="1 0 0 0 0  0 1 0 0 0  0 0 1 0 0  0 0 0 1 0"/>
	</filter>
</defs>
<mask maskUnits="userSpaceOnUse" x="72.2" y="36.1" width="3.8" height="6.3" id="mask4_654_11134_00000018948561731468802070000010366780075789833903_">
	<path style="fill:#FFFFFF;filter:url(#Adobe_OpacityMaskFilter_00000072960205480048571680000017395667930975093381_);" d="
		M71.9,35.8h4.2v6.9h-4.2V35.8z"/>
</mask>
<g class="st12">
	<defs>
		
			<filter id="Adobe_OpacityMaskFilter_00000094603187521286580790000016830136695732308654_" filterUnits="userSpaceOnUse" x="72.2" y="36.1" width="3.8" height="6.3">
			<feColorMatrix  type="matrix" values="1 0 0 0 0  0 1 0 0 0  0 0 1 0 0  0 0 0 1 0"/>
		</filter>
	</defs>
	
		<mask maskUnits="userSpaceOnUse" x="72.2" y="36.1" width="3.8" height="6.3" id="mask5_654_11134_00000080900912448507587810000017189824984161565105_">
		<path style="fill:#FFFFFF;filter:url(#Adobe_OpacityMaskFilter_00000094603187521286580790000016830136695732308654_);" d="
			M70.5,40l4.4-4.6l2.8,2.9l-4.4,4.6L70.5,40z"/>
	</mask>
	<g class="st14">
		<defs>
			
				<filter id="Adobe_OpacityMaskFilter_00000149344013256047111190000004163585227470104967_" filterUnits="userSpaceOnUse" x="72.2" y="36.1" width="3.8" height="6.3">
				<feColorMatrix  type="matrix" values="1 0 0 0 0  0 1 0 0 0  0 0 1 0 0  0 0 0 1 0"/>
			</filter>
		</defs>
		
			<mask maskUnits="userSpaceOnUse" x="72.2" y="36.1" width="3.8" height="6.3" id="mask6_654_11134_00000062893313250404434760000016423114822594871726_">
			<path style="fill:#FFFFFF;filter:url(#Adobe_OpacityMaskFilter_00000149344013256047111190000004163585227470104967_);" d="
				M70.5,40l4.4-4.6l2.8,2.9l-4.4,4.6L70.5,40z"/>
		</mask>
		<g class="st16">
			<path class="st2" d="M72.3,39.8c0.1-0.1,0.2-0.1,0.3-0.2c0.3-0.1,0.7-0.3,1-0.4c0.2-0.1,0.2-0.1,0.2-0.4c-0.1-0.5-0.3-1-0.4-1.5
				c0-0.1,0-0.1,0-0.2c0-0.1,0-0.3,0.2-0.3c0.1-0.1,0.2-0.1,0.3-0.2c0.4-0.1,0.7-0.3,1.1-0.4c0.1-0.1,0.3-0.1,0.4-0.1
				c0.2,0,0.3,0,0.4,0.2c0.1,0.3,0.2,0.5,0.2,0.8c0,0.2,0,0.2-0.1,0.3c-0.2,0.1-0.5,0.2-0.7,0.3c-0.1,0-0.2,0.1-0.3,0.1
				c-0.1,0.1-0.1,0.1-0.1,0.2c0.1,0.4,0.2,0.8,0.4,1.3c0,0.1,0.1,0.2,0.1,0.3c0,0.1,0,0.2-0.1,0.3c-0.2,0.1-0.3,0.2-0.5,0.2
				c-0.3,0.1-0.5,0.2-0.7,0.4c-0.1,0.1-0.1,0.1-0.1,0.2c0.1,0.4,0.1,0.8,0.2,1.1c0,0.1,0,0.2-0.1,0.3c-0.1,0.1-0.2,0.1-0.3,0.1
				c-0.2,0-0.3,0-0.5,0.1c-0.2,0-0.3,0-0.3-0.2c-0.2-0.6-0.3-1.2-0.4-1.8c0-0.1,0-0.1,0-0.2C72.2,40,72.2,39.9,72.3,39.8z"/>
		</g>
	</g>
</g>
<defs>
	
		<filter id="Adobe_OpacityMaskFilter_00000003080605717758824740000002219011147934480272_" filterUnits="userSpaceOnUse" x="48.5" y="47.4" width="22.6" height="14.1">
		<feColorMatrix  type="matrix" values="1 0 0 0 0  0 1 0 0 0  0 0 1 0 0  0 0 0 1 0"/>
	</filter>
</defs>
<mask maskUnits="userSpaceOnUse" x="48.5" y="47.4" width="22.6" height="14.1" id="mask7_654_11134_00000171688845141936838070000015815663817463973007_">
	<path style="fill:#FFFFFF;filter:url(#Adobe_OpacityMaskFilter_00000003080605717758824740000002219011147934480272_);" d="
		M48.5,47.4h22.4v14.1H48.5V47.4z"/>
</mask>
<g class="st18">
	<path class="st2" d="M48.5,47.4H71v14.1H48.5V47.4z"/>
</g>
<defs>
	
		<filter id="Adobe_OpacityMaskFilter_00000071555677129288416670000017345515965615400627_" filterUnits="userSpaceOnUse" x="54" y="46.7" width="5.2" height="5.5">
		<feColorMatrix  type="matrix" values="1 0 0 0 0  0 1 0 0 0  0 0 1 0 0  0 0 0 1 0"/>
	</filter>
</defs>
<mask maskUnits="userSpaceOnUse" x="54" y="46.7" width="5.2" height="5.5" id="mask8_654_11134_00000074409549582886220760000000369688930162716564_">
	<path style="fill:#FFFFFF;filter:url(#Adobe_OpacityMaskFilter_00000071555677129288416670000017345515965615400627_);" d="
		M53.9,46.7h5.6v5.7h-5.6V46.7z"/>
</mask>
<g class="st20">
	<path class="st21" d="M58,52.1c0.1,0.1,0.1,0.1,0.2,0.1s0.1,0,0.2-0.1l0.7-0.8c0.1-0.1,0.1-0.1,0.1-0.2c0-0.1,0-0.1-0.1-0.2
		l-1.4-1.5l1.4-1.5c0.1-0.1,0.1-0.1,0.1-0.2c0-0.1,0-0.1-0.1-0.2l-0.7-0.8c-0.1-0.1-0.3-0.1-0.4,0l-1.4,1.5l-1.4-1.5
		c-0.1-0.1-0.3-0.1-0.4,0L54,47.6c-0.1,0.1-0.1,0.3,0,0.4l1.4,1.5L54,51c-0.1,0.1-0.1,0.3,0,0.4l0.7,0.8c0.1,0.1,0.1,0.1,0.2,0.1
		c0.1,0,0.1,0,0.2-0.1l1.4-1.5L58,52.1z"/>
</g>
<defs>
	
		<filter id="Adobe_OpacityMaskFilter_00000178182743639205192580000013497708045862003592_" filterUnits="userSpaceOnUse" x="63.7" y="46.7" width="5.2" height="5.5">
		<feColorMatrix  type="matrix" values="1 0 0 0 0  0 1 0 0 0  0 0 1 0 0  0 0 0 1 0"/>
	</filter>
</defs>
<mask maskUnits="userSpaceOnUse" x="63.7" y="46.7" width="5.2" height="5.5" id="mask9_654_11134_00000026160425908651124830000011504789797816763307_">
	<path style="fill:#FFFFFF;filter:url(#Adobe_OpacityMaskFilter_00000178182743639205192580000013497708045862003592_);" d="
		M63.4,46.7h5.5v5.7h-5.5V46.7z"/>
</mask>
<g class="st23">
	<path class="st21" d="M67.4,49.4l1.4-1.5c0.1-0.1,0.1-0.1,0.1-0.2c0-0.1,0-0.1-0.1-0.2l-0.7-0.8c-0.1-0.1-0.3-0.1-0.4,0l-1.4,1.5
		l-1.4-1.5c-0.1-0.1-0.3-0.1-0.4,0l-0.7,0.8c-0.1,0.1-0.1,0.1-0.1,0.2c0,0.1,0,0.1,0.1,0.2l1.4,1.5l-1.4,1.5
		c-0.1,0.1-0.1,0.1-0.1,0.2c0,0.1,0,0.1,0.1,0.2l0.7,0.8c0.1,0.1,0.1,0.1,0.2,0.1c0.1,0,0.1,0,0.2-0.1l1.4-1.5l1.4,1.5
		c0.1,0.1,0.1,0.1,0.2,0.1c0.1,0,0.1,0,0.2-0.1l0.7-0.8c0.1-0.1,0.1-0.1,0.1-0.2c0-0.1,0-0.1-0.1-0.2L67.4,49.4z"/>
</g>
<defs>
	
		<filter id="Adobe_OpacityMaskFilter_00000107553620241951308730000002739464374041563559_" filterUnits="userSpaceOnUse" x="56.2" y="56.5" width="10.9" height="5.8">
		<feColorMatrix  type="matrix" values="1 0 0 0 0  0 1 0 0 0  0 0 1 0 0  0 0 0 1 0"/>
	</filter>
</defs>
<mask maskUnits="userSpaceOnUse" x="56.2" y="56.5" width="10.9" height="5.8" id="mask0_654_11367_00000052103153676945850120000018147291510062494853_">
	<path style="fill:#FFFFFF;filter:url(#Adobe_OpacityMaskFilter_00000107553620241951308730000002739464374041563559_);" d="
		M56.1,56.3h11.1v6H56.1V56.3z"/>
</mask>
<g class="st25">
	<path class="st21" d="M66.8,56.5H56.5c-0.2,0-0.3,0.1-0.3,0.3c0,3,2.4,5.5,5.5,5.5c3,0,5.5-2.5,5.5-5.5
		C67.1,56.6,66.9,56.5,66.8,56.5z"/>
</g>
</svg>
