<?xml version="1.0" encoding="utf-8"?>
<!-- Generator: Adobe Illustrator 26.2.1, SVG Export Plug-In . SVG Version: 6.00 Build 0)  -->
<svg version="1.1" id="Ebene_1" xmlns="http://www.w3.org/2000/svg" xmlns:xlink="http://www.w3.org/1999/xlink" x="0px" y="0px"
	 viewBox="0 0 123 126" style="enable-background:new 0 0 123 126;" xml:space="preserve">
<style type="text/css">
	.st0{fill:url(#SVGID_1_);}
	.st1{fill:none;stroke:#2F2F2F;stroke-opacity:0.8;}
	.st2{fill:#FEFCF3;}
	.st3{fill:#FFFFFF;filter:url(#Adobe_OpacityMaskFilter);}
	.st4{mask:url(#mask0_654_11229_00000133492904729753110660000004270785553243116467_);}
	.st5{fill:#FFFFFF;filter:url(#Adobe_OpacityMaskFilter_00000124843891318353572220000014374401145583018385_);}
	.st6{mask:url(#mask1_654_11229_00000116222491988639678400000010901378636492771741_);}
	.st7{fill:#FFFFFF;filter:url(#Adobe_OpacityMaskFilter_00000099625550825905378920000012343444547601129116_);}
	.st8{mask:url(#mask2_654_11229_00000083061825796330767960000003068781400531023250_);}
	.st9{fill:#FFFFFF;filter:url(#Adobe_OpacityMaskFilter_00000077293817050426989710000006209799240259460736_);}
	.st10{mask:url(#mask3_654_11229_00000052797225178021702120000018420263548209033908_);}
	.st11{fill:#FFFFFF;filter:url(#Adobe_OpacityMaskFilter_00000072255271175376415790000006464340038935300777_);}
	.st12{mask:url(#mask4_654_11229_00000117660946540155133010000011253900559315098787_);}
	.st13{fill:#FFFFFF;filter:url(#Adobe_OpacityMaskFilter_00000097493691301528741840000016033593574184509572_);}
	.st14{mask:url(#mask5_654_11229_00000044175230078388055820000011578161843129431425_);}
	.st15{fill:#FFFFFF;filter:url(#Adobe_OpacityMaskFilter_00000155826332543375462580000015550789650868635300_);}
	.st16{mask:url(#mask6_654_11229_00000072258385294375117490000012213382537819510705_);}
	.st17{fill:#FFFFFF;filter:url(#Adobe_OpacityMaskFilter_00000019667353512718702120000011288826330401611690_);}
	.st18{mask:url(#mask7_654_11229_00000142144377949577301230000009710625015390039434_);}
	.st19{fill:#FFFFFF;filter:url(#Adobe_OpacityMaskFilter_00000163777961873194309980000007555716325308526505_);}
	.st20{mask:url(#mask8_654_11229_00000034063732878066439090000004796697100634574520_);}
	.st21{fill:#B623A3;}
	.st22{fill:#FFFFFF;filter:url(#Adobe_OpacityMaskFilter_00000051382793425348555040000008750509089771807376_);}
	.st23{mask:url(#mask9_654_11229_00000057114273493868803060000001903584225520404611_);}
	.st24{fill:#181818;}
	.st25{fill:#FFFFFF;}
</style>
<g>
	
		<linearGradient id="SVGID_1_" gradientUnits="userSpaceOnUse" x1="78.0495" y1="112.5879" x2="-11.8614" y2="-141.0965" gradientTransform="matrix(1 0 0 -1 0 126)">
		<stop  offset="0" style="stop-color:#B623A3"/>
		<stop  offset="1" style="stop-color:#B623A3;stop-opacity:0"/>
	</linearGradient>
	<path class="st0" d="M40.8,20H83c8.8,0,16,7.2,16,16v46c0,8.8-7.2,16-16,16H40.8c-8.8,0-16-7.2-16-16V36C24.8,27.2,31.9,20,40.8,20
		z"/>
	<path class="st1" d="M40.8,20.5H83c8.6,0,15.5,6.9,15.5,15.5v46c0,8.6-6.9,15.5-15.5,15.5H40.8c-8.6,0-15.5-6.9-15.5-15.5V36
		C25.3,27.4,32.2,20.5,40.8,20.5z"/>
</g>
<path class="st2" d="M48.9,86.1c-0.6,0-1.3-0.1-1.8-0.3c-0.6-0.2-1-0.5-1.4-0.8l0.4-0.9c0.3,0.3,0.7,0.5,1.2,0.7
	c0.5,0.2,1,0.3,1.5,0.3c0.5,0,0.9-0.1,1.2-0.2c0.3-0.1,0.5-0.3,0.7-0.5c0.1-0.2,0.2-0.4,0.2-0.7c0-0.3-0.1-0.5-0.3-0.7
	c-0.2-0.2-0.4-0.3-0.7-0.4c-0.3-0.1-0.6-0.2-1-0.3s-0.7-0.2-1.1-0.3c-0.4-0.1-0.7-0.3-1-0.4c-0.3-0.2-0.5-0.4-0.7-0.7
	c-0.2-0.3-0.3-0.7-0.3-1.1c0-0.4,0.1-0.8,0.3-1.2c0.2-0.4,0.6-0.7,1.1-0.9c0.5-0.2,1.1-0.3,1.8-0.3c0.5,0,1,0.1,1.5,0.2
	s0.9,0.3,1.2,0.6l-0.4,1c-0.4-0.2-0.7-0.4-1.1-0.5c-0.4-0.1-0.8-0.2-1.2-0.2c-0.5,0-0.9,0.1-1.2,0.2c-0.3,0.1-0.5,0.3-0.7,0.5
	c-0.1,0.2-0.2,0.4-0.2,0.7c0,0.3,0.1,0.5,0.3,0.7c0.2,0.2,0.4,0.3,0.7,0.4c0.3,0.1,0.6,0.2,1,0.3c0.4,0.1,0.7,0.2,1.1,0.3
	c0.4,0.1,0.7,0.2,1,0.4c0.3,0.2,0.5,0.4,0.7,0.7c0.2,0.3,0.3,0.6,0.3,1.1c0,0.4-0.1,0.8-0.3,1.2c-0.2,0.4-0.6,0.7-1.1,0.9
	C50.2,86,49.6,86.1,48.9,86.1z M53.7,86v-8.9h1.2V86H53.7z M61,86v-1.3L61,84.4v-2.3c0-0.5-0.1-0.9-0.4-1.1
	c-0.3-0.3-0.7-0.4-1.3-0.4c-0.4,0-0.7,0.1-1.1,0.2c-0.4,0.1-0.7,0.3-0.9,0.5l-0.5-0.9c0.3-0.3,0.7-0.5,1.2-0.6
	c0.5-0.1,0.9-0.2,1.5-0.2c0.9,0,1.5,0.2,2,0.6c0.5,0.4,0.7,1.1,0.7,1.9V86H61z M58.9,86.1c-0.5,0-0.9-0.1-1.2-0.2
	c-0.4-0.2-0.6-0.4-0.8-0.7c-0.2-0.3-0.3-0.6-0.3-1c0-0.3,0.1-0.7,0.2-0.9c0.2-0.3,0.4-0.5,0.8-0.7c0.4-0.2,0.9-0.3,1.5-0.3h2v0.8h-2
	c-0.6,0-1,0.1-1.2,0.3c-0.2,0.2-0.3,0.4-0.3,0.7c0,0.3,0.1,0.6,0.4,0.8c0.2,0.2,0.6,0.3,1,0.3c0.4,0,0.8-0.1,1.1-0.3
	c0.3-0.2,0.6-0.5,0.7-0.8l0.2,0.8c-0.2,0.4-0.4,0.7-0.8,0.9C60,86,59.5,86.1,58.9,86.1z M67.6,79.6c0.5,0,1,0.1,1.4,0.3
	c0.4,0.2,0.7,0.5,0.9,0.9c0.2,0.4,0.3,0.9,0.3,1.5V86h-1.2v-3.5c0-0.6-0.2-1.1-0.5-1.4c-0.3-0.3-0.7-0.5-1.3-0.5
	c-0.4,0-0.8,0.1-1.1,0.2c-0.3,0.2-0.5,0.4-0.7,0.7c-0.2,0.3-0.2,0.7-0.2,1.2V86h-1.2v-6.4h1.1v1.7l-0.2-0.5c0.2-0.4,0.5-0.7,1-1
	S67.1,79.6,67.6,79.6z M75.2,88.4c-0.6,0-1.2-0.1-1.7-0.3c-0.5-0.2-1-0.4-1.3-0.7l0.6-0.9c0.3,0.3,0.7,0.5,1.1,0.6
	c0.4,0.2,0.9,0.2,1.4,0.2c0.8,0,1.3-0.2,1.7-0.5c0.4-0.4,0.5-0.9,0.5-1.6v-1.3l0.1-1.3l-0.1-1.3v-1.7h1.1v5.5c0,1.1-0.3,1.9-0.8,2.5
	C77.1,88.1,76.3,88.4,75.2,88.4z M75.1,85.7c-0.6,0-1.2-0.1-1.7-0.4c-0.5-0.3-0.9-0.6-1.2-1.1c-0.3-0.5-0.4-1-0.4-1.6
	c0-0.6,0.1-1.2,0.4-1.6c0.3-0.5,0.7-0.8,1.2-1.1c0.5-0.3,1-0.4,1.7-0.4c0.5,0,1,0.1,1.5,0.3c0.4,0.2,0.8,0.6,1.1,1
	c0.3,0.5,0.4,1,0.4,1.7c0,0.7-0.1,1.3-0.4,1.7c-0.3,0.5-0.6,0.8-1.1,1C76.1,85.6,75.6,85.7,75.1,85.7z M75.2,84.7
	c0.4,0,0.8-0.1,1.1-0.3c0.3-0.2,0.6-0.4,0.8-0.7c0.2-0.3,0.3-0.7,0.3-1.1s-0.1-0.8-0.3-1.1c-0.2-0.3-0.4-0.6-0.8-0.7
	c-0.3-0.2-0.7-0.3-1.1-0.3c-0.4,0-0.8,0.1-1.1,0.3c-0.3,0.2-0.6,0.4-0.8,0.7c-0.2,0.3-0.3,0.7-0.3,1.1s0.1,0.8,0.3,1.1
	c0.2,0.3,0.5,0.6,0.8,0.7C74.4,84.6,74.8,84.7,75.2,84.7z"/>
<defs>
	<filter id="Adobe_OpacityMaskFilter" filterUnits="userSpaceOnUse" x="46" y="32.2" width="32" height="38">
		<feColorMatrix  type="matrix" values="1 0 0 0 0  0 1 0 0 0  0 0 1 0 0  0 0 0 1 0"/>
	</filter>
</defs>
<mask maskUnits="userSpaceOnUse" x="46" y="32.2" width="32" height="38" id="mask0_654_11229_00000133492904729753110660000004270785553243116467_">
	<path class="st3" d="M46,32.2h32v38H46V32.2z"/>
</mask>
<g class="st4">
	<path class="st2" d="M70.2,50.3c-0.2,0-0.3-0.2-0.3-0.3c0-1.7-1.1-3.1-2.4-3.1c-1.3,0-2.4,1.4-2.4,3.1c0,0.2-0.1,0.3-0.3,0.3
		c-0.2,0-0.3-0.2-0.3-0.3c0-2.1,1.3-3.7,3-3.7c1.7,0,3,1.7,3,3.7C70.6,50.1,70.4,50.3,70.2,50.3z M58.4,53.5c0.2,0,0.3,0.2,0.3,0.3
		c0,2.1,1.3,3.8,2.9,3.8c1.6,0,2.9-1.7,2.9-3.8c0-0.2,0.1-0.3,0.3-0.3s0.3,0.2,0.3,0.3c0,2.5-1.6,4.5-3.6,4.5s-3.6-2-3.6-4.5
		C58.1,53.6,58.2,53.5,58.4,53.5z M53.2,49.9c0,0.2-0.1,0.3-0.3,0.3c-0.2,0-0.3-0.2-0.3-0.3c0-2.1,1.3-3.7,3-3.7c1.7,0,3,1.7,3,3.7
		c0,0.2-0.1,0.3-0.3,0.3c-0.2,0-0.3-0.2-0.3-0.3c0-1.7-1.1-3.1-2.4-3.1C54.3,46.9,53.2,48.3,53.2,49.9z M74.3,40.1l1-3.7
		c0.1,0,0.2,0,0.3,0c0.1,0,0.1,0,0.2,0c0.5-0.1,1-0.3,1.4-0.8c0.3-0.4,0.5-1,0.4-1.5c-0.1-1.2-1.1-2-2.2-1.9c-0.5,0.1-1,0.3-1.4,0.8
		c-0.3,0.4-0.5,1-0.4,1.6c0.1,0.7,0.5,1.4,1.1,1.7l-1,3.7c-0.2,0-0.4,0-0.7,0H50.9c-0.1,0-0.2,0-0.4,0l-1-3.7c0.6-0.3,1-0.9,1.1-1.7
		c0.1-0.6-0.1-1.1-0.4-1.6c-0.3-0.4-0.8-0.7-1.4-0.8c-1.1-0.1-2.1,0.7-2.2,1.9c-0.1,0.6,0.1,1.1,0.4,1.5c0.3,0.4,0.8,0.7,1.4,0.8
		c0.1,0,0.1,0,0.2,0c0.1,0,0.2,0,0.3,0l1,3.6c-2.2,0.5-3.9,2.6-3.9,5V59c0,2.7,2,4.9,4.6,5.1v5.6c0,0.2,0.1,0.4,0.3,0.5
		c0.1,0,0.1,0,0.2,0c0.1,0,0.3-0.1,0.4-0.2l5.8-5.6c0.3-0.2,0.6-0.4,0.9-0.4H73c2.7,0,4.9-2.3,4.9-5.2V45.1
		C78,42.7,76.4,40.7,74.3,40.1z"/>
</g>
<defs>
	
		<filter id="Adobe_OpacityMaskFilter_00000098185552496985827580000003086641653457422497_" filterUnits="userSpaceOnUse" x="47" y="34.7" width="4.1" height="6.2">
		<feColorMatrix  type="matrix" values="1 0 0 0 0  0 1 0 0 0  0 0 1 0 0  0 0 0 1 0"/>
	</filter>
</defs>
<mask maskUnits="userSpaceOnUse" x="47" y="34.7" width="4.1" height="6.2" id="mask1_654_11229_00000116222491988639678400000010901378636492771741_">
	<path style="fill:#FFFFFF;filter:url(#Adobe_OpacityMaskFilter_00000098185552496985827580000003086641653457422497_);" d="
		M47,34.7h4.5v6.6H47V34.7z"/>
</mask>
<g class="st6">
	<defs>
		
			<filter id="Adobe_OpacityMaskFilter_00000000203979680693848620000004110301086169855162_" filterUnits="userSpaceOnUse" x="47" y="34.7" width="4.1" height="6.2">
			<feColorMatrix  type="matrix" values="1 0 0 0 0  0 1 0 0 0  0 0 1 0 0  0 0 0 1 0"/>
		</filter>
	</defs>
	
		<mask maskUnits="userSpaceOnUse" x="47" y="34.7" width="4.1" height="6.2" id="mask2_654_11229_00000083061825796330767960000003068781400531023250_">
		<path style="fill:#FFFFFF;filter:url(#Adobe_OpacityMaskFilter_00000000203979680693848620000004110301086169855162_);" d="
			M50.8,34.4l0.6,6.5l-3.9,0.4l-0.6-6.5L50.8,34.4z"/>
	</mask>
	<g class="st8">
		<defs>
			
				<filter id="Adobe_OpacityMaskFilter_00000003099834897270963540000001189176440540917908_" filterUnits="userSpaceOnUse" x="47" y="34.7" width="4.1" height="6.2">
				<feColorMatrix  type="matrix" values="1 0 0 0 0  0 1 0 0 0  0 0 1 0 0  0 0 0 1 0"/>
			</filter>
		</defs>
		
			<mask maskUnits="userSpaceOnUse" x="47" y="34.7" width="4.1" height="6.2" id="mask3_654_11229_00000052797225178021702120000018420263548209033908_">
			<path style="fill:#FFFFFF;filter:url(#Adobe_OpacityMaskFilter_00000003099834897270963540000001189176440540917908_);" d="
				M50.8,34.4l0.6,6.5l-3.9,0.4l-0.6-6.5L50.8,34.4z"/>
		</mask>
		<g class="st10">
			<path class="st2" d="M49.7,35.9c0,0.1,0,0.3-0.1,0.4c-0.1,0.4-0.2,0.7-0.3,1.1c-0.1,0.2,0,0.3,0.2,0.4c0.5,0.2,0.9,0.4,1.4,0.6
				c0.1,0,0.1,0,0.1,0.1c0.1,0.1,0.2,0.2,0.2,0.4c0,0.1-0.1,0.3-0.1,0.4c-0.1,0.4-0.3,0.8-0.4,1.2c0,0.1-0.1,0.3-0.2,0.4
				c-0.1,0.2-0.2,0.2-0.4,0.2c-0.3-0.1-0.5-0.2-0.8-0.3c-0.2-0.1-0.2-0.1-0.1-0.3c0.1-0.3,0.2-0.5,0.3-0.8c0-0.1,0.1-0.2,0.1-0.3
				c0-0.1,0-0.2-0.1-0.2c-0.4-0.2-0.8-0.3-1.2-0.5c-0.1,0-0.2-0.1-0.3-0.1c-0.1-0.1-0.2-0.1-0.1-0.3c0-0.2,0.1-0.4,0.1-0.6
				c0.1-0.3,0.1-0.6,0.2-0.8c0-0.1,0-0.2-0.1-0.2c-0.3-0.2-0.6-0.4-1-0.6C47,35.8,47,35.8,47,35.6c0-0.1,0.1-0.2,0.1-0.3
				c0.1-0.1,0.2-0.3,0.3-0.4c0.1-0.1,0.2-0.2,0.3-0.1c0.5,0.3,1.1,0.5,1.6,0.8c0.1,0,0.1,0.1,0.2,0.1C49.7,35.7,49.7,35.8,49.7,35.9
				z"/>
		</g>
	</g>
</g>
<defs>
	
		<filter id="Adobe_OpacityMaskFilter_00000059301083816399244720000016970552358504656546_" filterUnits="userSpaceOnUse" x="72.9" y="34.7" width="3.8" height="6.3">
		<feColorMatrix  type="matrix" values="1 0 0 0 0  0 1 0 0 0  0 0 1 0 0  0 0 0 1 0"/>
	</filter>
</defs>
<mask maskUnits="userSpaceOnUse" x="72.9" y="34.7" width="3.8" height="6.3" id="mask4_654_11229_00000117660946540155133010000011253900559315098787_">
	<path style="fill:#FFFFFF;filter:url(#Adobe_OpacityMaskFilter_00000059301083816399244720000016970552358504656546_);" d="
		M72.7,34.4h4.2v6.9h-4.2V34.4z"/>
</mask>
<g class="st12">
	<defs>
		
			<filter id="Adobe_OpacityMaskFilter_00000161602030449095055950000000923570879630747809_" filterUnits="userSpaceOnUse" x="72.9" y="34.7" width="3.8" height="6.3">
			<feColorMatrix  type="matrix" values="1 0 0 0 0  0 1 0 0 0  0 0 1 0 0  0 0 0 1 0"/>
		</filter>
	</defs>
	
		<mask maskUnits="userSpaceOnUse" x="72.9" y="34.7" width="3.8" height="6.3" id="mask5_654_11229_00000044175230078388055820000011578161843129431425_">
		<path style="fill:#FFFFFF;filter:url(#Adobe_OpacityMaskFilter_00000161602030449095055950000000923570879630747809_);" d="
			M71.2,38.5l4.4-4.6l2.8,2.9L74,41.4L71.2,38.5z"/>
	</mask>
	<g class="st14">
		<defs>
			
				<filter id="Adobe_OpacityMaskFilter_00000083065096192405140320000018307931756946682522_" filterUnits="userSpaceOnUse" x="72.9" y="34.7" width="3.8" height="6.3">
				<feColorMatrix  type="matrix" values="1 0 0 0 0  0 1 0 0 0  0 0 1 0 0  0 0 0 1 0"/>
			</filter>
		</defs>
		
			<mask maskUnits="userSpaceOnUse" x="72.9" y="34.7" width="3.8" height="6.3" id="mask6_654_11229_00000072258385294375117490000012213382537819510705_">
			<path style="fill:#FFFFFF;filter:url(#Adobe_OpacityMaskFilter_00000083065096192405140320000018307931756946682522_);" d="
				M71.2,38.5l4.4-4.6l2.8,2.9L74,41.4L71.2,38.5z"/>
		</mask>
		<g class="st16">
			<path class="st2" d="M73,38.4c0.1-0.1,0.2-0.1,0.3-0.2c0.3-0.1,0.7-0.3,1-0.4c0.2-0.1,0.2-0.1,0.2-0.4c-0.1-0.5-0.3-1-0.4-1.5
				c0-0.1,0-0.1,0-0.2c0-0.1,0-0.3,0.2-0.3c0.1-0.1,0.2-0.1,0.3-0.2c0.4-0.1,0.7-0.3,1.1-0.4c0.1-0.1,0.3-0.1,0.4-0.1
				c0.2,0,0.3,0,0.4,0.2c0.1,0.3,0.2,0.5,0.2,0.8c0,0.2,0,0.2-0.1,0.3c-0.2,0.1-0.5,0.2-0.7,0.3c-0.1,0-0.2,0.1-0.3,0.1
				c-0.1,0.1-0.1,0.1-0.1,0.2c0.1,0.4,0.2,0.8,0.4,1.3c0,0.1,0.1,0.2,0.1,0.3c0,0.1,0,0.2-0.1,0.3c-0.2,0.1-0.3,0.2-0.5,0.2
				c-0.3,0.1-0.5,0.2-0.7,0.4c-0.1,0.1-0.1,0.1-0.1,0.2c0.1,0.4,0.1,0.8,0.2,1.1c0,0.1,0,0.2-0.1,0.3c-0.1,0.1-0.2,0.1-0.3,0.1
				c-0.2,0-0.3,0-0.5,0.1c-0.2,0-0.3,0-0.3-0.2c-0.2-0.6-0.3-1.2-0.4-1.8c0-0.1,0-0.1,0-0.2C72.9,38.6,72.9,38.5,73,38.4z"/>
		</g>
	</g>
</g>
<defs>
	
		<filter id="Adobe_OpacityMaskFilter_00000029746089730031760030000002174054729739928971_" filterUnits="userSpaceOnUse" x="49.2" y="46" width="22.6" height="14.1">
		<feColorMatrix  type="matrix" values="1 0 0 0 0  0 1 0 0 0  0 0 1 0 0  0 0 0 1 0"/>
	</filter>
</defs>
<mask maskUnits="userSpaceOnUse" x="49.2" y="46" width="22.6" height="14.1" id="mask7_654_11229_00000142144377949577301230000009710625015390039434_">
	<path style="fill:#FFFFFF;filter:url(#Adobe_OpacityMaskFilter_00000029746089730031760030000002174054729739928971_);" d="
		M49.2,46h22.4v14.1H49.2V46z"/>
</mask>
<g class="st18">
	<path class="st2" d="M49.2,46h22.6v14.1H49.2V46z"/>
</g>
<defs>
	
		<filter id="Adobe_OpacityMaskFilter_00000106147807258740715310000016694763180306392458_" filterUnits="userSpaceOnUse" x="53.7" y="55.2" width="17.5" height="4.7">
		<feColorMatrix  type="matrix" values="1 0 0 0 0  0 1 0 0 0  0 0 1 0 0  0 0 0 1 0"/>
	</filter>
</defs>
<mask maskUnits="userSpaceOnUse" x="53.7" y="55.2" width="17.5" height="4.7" id="mask8_654_11229_00000034063732878066439090000004796697100634574520_">
	<path style="fill:#FFFFFF;filter:url(#Adobe_OpacityMaskFilter_00000106147807258740715310000016694763180306392458_);" d="
		M53.7,55.2h17.5V60H53.7V55.2z"/>
</mask>
<g class="st20">
	<path class="st21" d="M53.9,56.7C53.9,56.7,54,56.7,53.9,56.7l0-0.2c0-0.1,0-0.1,0-0.1c0-0.1,0.1-0.2,0.1-0.3
		c0.1-0.1,0.1-0.2,0.2-0.2c0.1-0.1,0.3-0.2,0.4-0.3l0,0l0,0c0,0,0,0,0.1,0c0,0,0.1,0,0.1,0c0.1,0,0.1,0,0.2,0c0,0,0,0,0,0
		c0.1,0,0.1-0.1,0-0.1c-0.1,0-0.1-0.1-0.2-0.1c-0.1,0-0.1,0-0.2,0c0,0-0.1,0-0.1,0h0c0,0,0,0,0,0c-0.3,0-0.5,0.2-0.7,0.4
		c-0.1,0.1-0.2,0.2-0.2,0.3c-0.1,0.1-0.1,0.3-0.1,0.4c0,0,0,0.1,0,0.1c0,0,0,0,0,0.1c0,0,0,0,0,0c0,0,0,0.1,0,0.1c0,0,0,0.1,0,0.1
		c0,0,0,0.1,0.1,0.1c0,0.1,0.1,0.1,0.2,0C53.9,56.8,53.9,56.8,53.9,56.7z M70.9,56.9c0,0.1,0.1,0.1,0.2,0c0,0,0-0.1,0.1-0.1
		c0,0,0-0.1,0-0.1c0,0,0-0.1,0-0.1c0,0,0,0,0,0c0,0,0,0,0-0.1c0,0,0-0.1,0-0.1c0-0.1,0-0.3-0.1-0.4c-0.1-0.1-0.1-0.2-0.2-0.3
		c-0.2-0.2-0.4-0.3-0.7-0.4c0,0,0,0,0,0h-0.1c0,0-0.1,0-0.1,0c-0.1,0-0.1,0-0.2,0c-0.1,0-0.1,0-0.2,0.1c-0.1,0,0,0.1,0,0.1
		c0,0,0,0,0,0c0.1,0,0.1,0,0.2,0c0.1,0,0.1,0,0.1,0c0,0,0,0,0.1,0l0,0l0,0c0.2,0.1,0.3,0.2,0.4,0.3c0.1,0.1,0.1,0.1,0.2,0.2
		c0.1,0.1,0.1,0.2,0.1,0.3c0,0,0,0.1,0,0.1l0,0.1c0,0,0,0.1,0,0.1C70.9,56.8,70.9,56.8,70.9,56.9z M62.4,60c-1.4,0-2.8-0.3-4.1-0.9
		c-1.3-0.6-2.5-1.4-3.7-2.5c-0.1-0.1-0.1-0.2,0-0.3s0.2-0.1,0.3,0c2.3,2.1,4.9,3.2,7.5,3.2c2.6,0,5.3-1.1,7.6-3.3
		c0.1-0.1,0.2-0.1,0.3,0c0.1,0.1,0.1,0.2,0,0.3c-1.2,1.1-2.4,1.9-3.7,2.5C65.2,59.7,63.8,60,62.4,60z"/>
</g>
<defs>
	
		<filter id="Adobe_OpacityMaskFilter_00000102543107026958289940000005719369801613562001_" filterUnits="userSpaceOnUse" x="52" y="46.2" width="21" height="4.8">
		<feColorMatrix  type="matrix" values="1 0 0 0 0  0 1 0 0 0  0 0 1 0 0  0 0 0 1 0"/>
	</filter>
</defs>
<mask maskUnits="userSpaceOnUse" x="52" y="46.2" width="21" height="4.8" id="mask9_654_11229_00000057114273493868803060000001903584225520404611_">
	<path style="fill:#FFFFFF;filter:url(#Adobe_OpacityMaskFilter_00000102543107026958289940000005719369801613562001_);" d="
		M52,46.2h21v4.8H52V46.2z"/>
</mask>
<g class="st23">
	<path class="st24" d="M52,46.2v1.9h1v1h1v1h1v1h4.8v-1h1v-1h1v-1h1.9v1h1v1h1v1h4.8v-1h1v-1h1v-1h1v-1.9H52z"/>
</g>
<path class="st25" d="M55.8,49.1h-1v-1h1V49.1z"/>
<path class="st25" d="M56.7,50.1h-1v-1h1V50.1z"/>
<path class="st25" d="M54.8,48.2h-1v-1h1V48.2z"/>
<path class="st25" d="M57.7,49.1h-1v-1h1V49.1z"/>
<path class="st25" d="M58.6,50.1h-1v-1h1V50.1z"/>
<path class="st25" d="M56.7,48.2h-1v-1h1V48.2z"/>
<path class="st25" d="M66.3,49.1h-1v-1h1V49.1z"/>
<path class="st25" d="M67.2,50.1h-1v-1h1V50.1z"/>
<path class="st25" d="M65.3,48.2h-1v-1h1V48.2z"/>
<path class="st25" d="M68.2,49.1h-1v-1h1V49.1z"/>
<path class="st25" d="M69.1,50.1h-1v-1h1V50.1z"/>
<path class="st25" d="M67.2,48.2h-1v-1h1V48.2z"/>
</svg>
